<?xml version="1.0" encoding="UTF-8"?>
<svg id="Layer_2" data-name="Layer 2" xmlns="http://www.w3.org/2000/svg" viewBox="0 0 621.54 303.5">
  <defs>
    <style>
      .cls-1 {
        fill: #1d1c1a;
      }

      .cls-1, .cls-2 {
        stroke-width: 0px;
      }

      .cls-2 {
        fill: #244ad0;
      }
    </style>
  </defs>
  <g id="Layer_1-2" data-name="Layer 1">
    <g id="osa_vertical_blue">
      <g>
        <path class="cls-2" d="m116.39,4.16C54.14,4.16,3.5,55.7,3.5,119.06s50.64,114.86,112.89,114.86,113.05-51.53,113.05-114.86S178.73,4.16,116.39,4.16Zm0,184.58c-38.49,0-69.8-31.31-69.8-69.8s31.31-69.8,69.8-69.8,69.8,31.31,69.8,69.8-31.31,69.8-69.8,69.8Z"/>
        <path class="cls-2" d="m573.93,147.15c.45-.75.49-1.67.09-2.45L502.91,6.53c-.43-.83-1.29-1.36-2.23-1.36s-1.8.52-2.23,1.36l-114.46,222.53c-.4.78-.37,1.7.09,2.45.45.74,1.26,1.2,2.14,1.2h47.93c.94,0,1.8-.52,2.23-1.36l64.31-125.09,20.96,40.73c.43.83,1.29,1.36,2.23,1.36h47.93c.87,0,1.68-.45,2.14-1.2Z"/>
        <path class="cls-2" d="m617.77,229.13l-22.78-44.19c-.43-.83-1.29-1.36-2.23-1.36h-46.96c-.87,0-1.68.45-2.14,1.2s-.49,1.67-.09,2.45l22.7,44.19c.43.83,1.29,1.36,2.23,1.36h47.03c.87,0,1.68-.45,2.14-1.2.45-.75.49-1.67.09-2.45Z"/>
        <path class="cls-2" d="m313.26,97.1c-16.78,0-30.96-10.76-30.96-23.49s14.47-23.53,30.96-23.53,30.92,10.77,30.92,23.53c0,1.38,1.12,2.5,2.5,2.5h36.8c1.38,0,2.5-1.12,2.5-2.5,0-38.66-32.62-70.11-72.72-70.11s-72.76,31.45-72.76,70.11,32.64,70.07,72.76,70.07c16.47,0,30.92,10.97,30.92,23.49s-14.45,23.53-30.92,23.53c-1.38,0-2.5,1.12-2.5,2.5v41.78c0,1.38,1.12,2.5,2.5,2.5,40.1,0,72.72-31.54,72.72-70.31s-32.62-70.07-72.72-70.07Z"/>
      </g>
      <g>
        <path class="cls-1" d="m116.39,237.42C52.21,237.42,0,184.32,0,119.06S52.21.66,116.39.66s116.55,53.11,116.55,118.4-52.28,118.36-116.55,118.36Zm0-229.76C56.07,7.66,7,57.63,7,119.06s49.07,111.36,109.39,111.36,109.55-49.96,109.55-111.36S176.8,7.66,116.39,7.66Zm0,184.58c-40.42,0-73.3-32.88-73.3-73.3S75.97,45.64,116.39,45.64s73.3,32.88,73.3,73.3-32.88,73.3-73.3,73.3Zm0-139.6c-36.56,0-66.3,29.74-66.3,66.3s29.74,66.3,66.3,66.3,66.3-29.74,66.3-66.3-29.74-66.3-66.3-66.3Z"/>
        <path class="cls-1" d="m434.14,236.21h-47.93c-2.08,0-4.04-1.1-5.13-2.88-1.08-1.77-1.16-4.02-.21-5.87L495.34,4.93c1.03-2.01,3.08-3.26,5.34-3.26s4.31,1.25,5.34,3.26l71.11,138.17c.95,1.85.87,4.1-.21,5.87-1.08,1.78-3.05,2.88-5.13,2.88h-47.93c-2.26,0-4.3-1.25-5.34-3.26l-17.85-34.68-61.2,119.04c-1.03,2.01-3.08,3.26-5.34,3.26Zm-46.29-7h45.68l64.04-124.55c.6-1.17,1.8-1.9,3.11-1.9s2.51.73,3.11,1.9l20.68,40.19h45.69L500.68,9.85l-112.83,219.35Zm183.06-82.91h0,0Z"/>
        <path class="cls-1" d="m615.54,236.28h-47.03c-2.26,0-4.3-1.25-5.34-3.26l-22.7-44.19c-.95-1.85-.87-4.1.22-5.87s3.05-2.88,5.12-2.88h46.96c2.26,0,4.3,1.25,5.34,3.25l22.78,44.19h0c.95,1.85.87,4.1-.21,5.88-1.08,1.77-3.05,2.88-5.12,2.88Zm-.89-5.55s0,0,0,0h0Zm-45.54-1.45h44.79l-21.75-42.2h-44.72l21.67,42.2Z"/>
        <path class="cls-1" d="m313.26,240.98c-3.31,0-6-2.69-6-6v-41.78c0-3.31,2.69-6,6-6,14.35,0,27.42-9.54,27.42-20.03s-13.07-19.99-27.42-19.99c-42.05,0-76.26-33-76.26-73.57S271.21,0,313.26,0s76.22,33.02,76.22,73.61c0,3.31-2.69,6-6,6h-36.8c-3.31,0-6-2.69-6-6,0-10.86-12.56-20.03-27.42-20.03s-27.46,9.54-27.46,20.03,12.57,19.99,27.46,19.99c42.03,0,76.22,33,76.22,73.57s-34.19,73.81-76.22,73.81Zm1-46.8v39.79c37.71-.52,68.23-30.29,68.23-66.8s-31.05-66.57-69.22-66.57c-18.68,0-34.46-12.36-34.46-26.99s16.1-27.03,34.46-27.03,33.7,11.82,34.39,26.03h34.82c-.55-36.27-31.39-65.61-69.21-65.61s-69.26,29.88-69.26,66.61,31.07,66.57,69.26,66.57c18.33,0,34.42,12.61,34.42,26.99s-15.5,26.57-33.42,27.01Z"/>
      </g>
      <g>
        <path class="cls-1" d="m21.23,267.94c-4.95,0-9.16,1.71-12.59,5.19-3.43,3.43-5.14,7.64-5.14,12.59s1.71,9.11,5.14,12.59c3.43,3.48,7.64,5.19,12.59,5.19s9.16-1.71,12.59-5.19c3.48-3.48,5.19-7.64,5.19-12.59s-1.71-9.16-5.19-12.59c-3.43-3.48-7.64-5.19-12.59-5.19Zm9.41,27.28c-2.5,2.55-5.63,3.82-9.41,3.82s-6.91-1.27-9.45-3.82c-2.5-2.6-3.77-5.73-3.77-9.5s1.27-6.96,3.77-9.5c2.55-2.6,5.68-3.87,9.45-3.87s6.91,1.27,9.41,3.87c2.55,2.55,3.82,5.73,3.82,9.5s-1.27,6.91-3.82,9.5Z"/>
        <rect class="cls-1" x="44.5" y="268.57" width="4.56" height="34.29"/>
        <path class="cls-1" d="m74.43,286.26c-1.32-.73-1.71-.98-3.43-1.62-.83-.34-1.42-.54-1.81-.69l-2.01-.64c-2.64-.83-4.51-1.67-5.58-2.45-1.08-.78-1.62-1.91-1.62-3.43,0-3.14,2.5-5.09,6.22-5.09s6.32,1.76,7.79,5.29l3.82-2.2c-2.01-4.51-6.17-7.49-11.61-7.49-2.99,0-5.54.88-7.64,2.65-2.11,1.71-3.13,4.07-3.13,7.05,0,2.5,1.03,4.51,2.16,5.73.54.59,1.37,1.18,2.5,1.76,1.13.54,2.11.98,2.84,1.27l3.28,1.08c2.89.93,5,1.76,6.22,2.6,1.22.83,1.86,2.06,1.86,3.67,0,3.18-2.55,5.29-7.25,5.29s-7.84-2.06-9.16-6.22l-3.92,2.25c1.81,5.24,6.56,8.43,12.98,8.43,3.53,0,6.37-.88,8.57-2.65,2.2-1.81,3.28-4.21,3.28-7.2,0-2.16-.49-3.92-1.71-5.14-.83-.98-1.27-1.52-2.64-2.25Z"/>
        <path class="cls-1" d="m96.37,268.57h-12.44v34.29h4.56v-12.25h7.89c3.18,0,5.78-1.08,7.89-3.18,2.11-2.11,3.18-4.75,3.18-7.84s-1.08-5.73-3.18-7.84c-2.11-2.11-4.7-3.18-7.89-3.18Zm4.7,15.87c-1.22,1.27-2.79,1.91-4.7,1.91h-7.89v-13.52h7.89c3.77,0,6.56,2.84,6.56,6.76,0,1.91-.64,3.53-1.86,4.85Z"/>
        <path class="cls-1" d="m143.64,286.26c-1.32-.73-1.71-.98-3.43-1.62-.83-.34-1.42-.54-1.81-.69l-2.01-.64c-2.65-.83-4.51-1.67-5.58-2.45-1.08-.78-1.62-1.91-1.62-3.43,0-3.14,2.5-5.09,6.22-5.09s6.32,1.76,7.79,5.29l3.82-2.2c-2.01-4.51-6.17-7.49-11.61-7.49-2.99,0-5.54.88-7.64,2.65-2.11,1.71-3.14,4.07-3.14,7.05,0,2.5,1.03,4.51,2.16,5.73.54.59,1.37,1.18,2.5,1.76,1.13.54,2.11.98,2.84,1.27l3.28,1.08c2.89.93,5,1.76,6.22,2.6,1.22.83,1.86,2.06,1.86,3.67,0,3.18-2.55,5.29-7.25,5.29s-7.84-2.06-9.16-6.22l-3.92,2.25c1.81,5.24,6.56,8.43,12.98,8.43,3.53,0,6.37-.88,8.57-2.65,2.2-1.81,3.28-4.21,3.28-7.2,0-2.16-.49-3.92-1.71-5.14-.83-.98-1.27-1.52-2.65-2.25Z"/>
        <path class="cls-1" d="m159.02,271.51l-4.26,1.27v5.58h-4.85v4.11h4.85v13.27c0,6.07,3.33,8.08,10.78,7.1v-3.82c-4.36.2-6.51.49-6.51-3.28v-13.27h6.51v-4.11h-6.51v-6.86Z"/>
        <path class="cls-1" d="m187.63,291.35c0,5.49-2.84,8.08-7.1,8.08-3.77,0-6.07-2.3-6.07-6.27v-14.79h-4.26v15.04c0,6.22,3.77,10.09,9.5,10.09,3.58,0,6.22-1.37,7.94-4.16v3.53h4.26v-24.49h-4.26v12.98Z"/>
        <path class="cls-1" d="m218.64,282.58c-2.11-3.23-5.19-4.85-9.26-4.85-3.43,0-6.37,1.27-8.77,3.77-2.4,2.5-3.62,5.54-3.62,9.11s1.22,6.66,3.62,9.16c2.4,2.5,5.34,3.72,8.77,3.72,4.07,0,7.15-1.62,9.26-4.85v4.21h4.26v-34.29h-4.26v14.01Zm-2.5,14.3c-1.67,1.67-3.72,2.5-6.22,2.5s-4.51-.83-6.17-2.5c-1.67-1.71-2.5-3.77-2.5-6.27s.83-4.56,2.5-6.22c1.67-1.71,3.72-2.55,6.17-2.55s4.56.83,6.22,2.55c1.67,1.67,2.5,3.72,2.5,6.22s-.83,4.56-2.5,6.27Z"/>
        <path class="cls-1" d="m240.82,277.73c-3.77,0-6.86,1.22-9.26,3.67s-3.58,5.54-3.58,9.21,1.22,6.81,3.62,9.26c2.45,2.4,5.63,3.62,9.5,3.62,4.8,0,8.38-1.86,10.78-5.54l-3.62-2.06c-1.47,2.4-3.82,3.58-7.05,3.58-4.65,0-8.03-2.55-8.87-6.91h20.52c.1-.64.15-1.27.15-1.91,0-3.58-1.13-6.61-3.43-9.11-2.25-2.55-5.19-3.82-8.77-3.82Zm-8.47,11.12c.73-4.31,3.92-7.1,8.47-7.1,3.92,0,7.15,2.45,7.89,7.1h-16.36Z"/>
        <path class="cls-1" d="m270.12,277.73c-3.58,0-6.22,1.37-7.94,4.16v-3.53h-4.26v24.49h4.26v-12.98c0-5.49,2.84-8.08,7.1-8.08,3.77,0,6.07,2.3,6.07,6.27v14.79h4.26v-15.04c0-6.22-3.77-10.09-9.5-10.09Z"/>
        <path class="cls-1" d="m292.35,271.51l-4.26,1.27v5.58h-4.85v4.11h4.85v13.27c0,6.07,3.33,8.08,10.78,7.1v-3.82c-4.36.2-6.51.49-6.51-3.28v-13.27h6.51v-4.11h-6.51v-6.86Z"/>
        <path class="cls-1" d="m326.25,268.57l-12.78,34.29h4.85l2.79-7.69h15.43l2.79,7.69h4.85l-12.78-34.29h-5.14Zm-3.58,22.34l6.12-16.9,6.17,16.9h-12.29Z"/>
        <path class="cls-1" d="m374.25,277.73c-3.43,0-5.98,1.37-7.69,4.16-1.52-2.79-3.92-4.16-7.2-4.16s-5.63,1.32-7.3,3.92v-3.28h-4.26v24.49h4.26v-13.62c0-4.95,2.69-7.45,6.27-7.45,3.18,0,5.19,2.2,5.19,5.98v15.09h4.26v-13.62c0-5.05,2.35-7.45,6.02-7.45,3.28,0,5.39,2.2,5.39,5.98v15.09h4.26v-15.23c0-6.07-3.72-9.89-9.21-9.89Z"/>
        <path class="cls-1" d="m402.91,277.73c-4.07,0-7.15,1.62-9.26,4.85v-14.01h-4.26v34.29h4.26v-4.21c2.11,3.23,5.19,4.85,9.26,4.85,3.43,0,6.37-1.22,8.77-3.72,2.4-2.5,3.62-5.58,3.62-9.16s-1.22-6.61-3.62-9.11c-2.4-2.5-5.34-3.77-8.77-3.77Zm5.63,19.15c-1.67,1.67-3.72,2.5-6.17,2.5s-4.56-.83-6.22-2.5c-1.67-1.71-2.5-3.77-2.5-6.27s.83-4.56,2.5-6.22c1.67-1.71,3.72-2.55,6.22-2.55s4.51.83,6.17,2.55c1.67,1.67,2.5,3.72,2.5,6.22s-.83,4.56-2.5,6.27Z"/>
        <path class="cls-1" d="m440.68,282.58c-2.11-3.23-5.19-4.85-9.26-4.85-3.43,0-6.37,1.27-8.77,3.77-2.4,2.5-3.62,5.54-3.62,9.11s1.22,6.66,3.62,9.16c2.4,2.5,5.34,3.72,8.77,3.72,4.07,0,7.15-1.62,9.26-4.85v4.21h4.26v-24.49h-4.26v4.21Zm-2.5,14.3c-1.67,1.67-3.72,2.5-6.22,2.5s-4.51-.83-6.17-2.5c-1.67-1.71-2.5-3.77-2.5-6.27s.83-4.56,2.5-6.22c1.67-1.71,3.72-2.55,6.17-2.55s4.56.83,6.22,2.55c1.67,1.67,2.5,3.72,2.5,6.22s-.83,4.56-2.5,6.27Z"/>
        <path class="cls-1" d="m459.88,288.66c-2.69-.73-4.85-1.76-4.85-3.67,0-2.11,1.96-3.28,4.36-3.28,2.6,0,4.36,1.03,5.24,3.14l3.58-2.01c-1.57-3.18-4.85-5.09-8.82-5.09-2.5,0-4.56.69-6.22,2.06-1.62,1.37-2.45,3.14-2.45,5.24,0,5.19,5,6.47,8.87,7.49,2.69.64,4.85,1.71,4.85,3.62,0,2.3-2.06,3.33-4.85,3.33-2.99,0-5.29-1.47-6.07-3.82l-3.67,2.11c1.42,3.48,5,5.73,9.75,5.73,2.69,0,4.85-.69,6.56-2.01,1.71-1.32,2.6-3.13,2.6-5.34.05-5.24-5.04-6.66-8.87-7.49Z"/>
        <path class="cls-1" d="m480.79,288.66c-2.69-.73-4.85-1.76-4.85-3.67,0-2.11,1.96-3.28,4.36-3.28,2.6,0,4.36,1.03,5.24,3.14l3.58-2.01c-1.57-3.18-4.85-5.09-8.82-5.09-2.5,0-4.56.69-6.22,2.06-1.62,1.37-2.45,3.14-2.45,5.24,0,5.19,5,6.47,8.87,7.49,2.69.64,4.85,1.71,4.85,3.62,0,2.3-2.06,3.33-4.85,3.33-2.99,0-5.29-1.47-6.07-3.82l-3.67,2.11c1.42,3.48,5,5.73,9.75,5.73,2.69,0,4.85-.69,6.56-2.01,1.71-1.32,2.6-3.13,2.6-5.34.05-5.24-5.04-6.66-8.87-7.49Z"/>
        <path class="cls-1" d="m514.3,282.58c-2.11-3.23-5.19-4.85-9.26-4.85-3.43,0-6.37,1.27-8.77,3.77-2.4,2.5-3.62,5.54-3.62,9.11s1.22,6.66,3.62,9.16c2.4,2.5,5.34,3.72,8.77,3.72,4.07,0,7.15-1.62,9.26-4.85v4.21h4.26v-24.49h-4.26v4.21Zm-2.5,14.3c-1.67,1.67-3.72,2.5-6.22,2.5s-4.51-.83-6.17-2.5c-1.67-1.71-2.5-3.77-2.5-6.27s.83-4.56,2.5-6.22c1.67-1.71,3.72-2.55,6.17-2.55s4.56.83,6.22,2.55c1.67,1.67,2.5,3.72,2.5,6.22s-.83,4.56-2.5,6.27Z"/>
        <path class="cls-1" d="m545.31,282.58c-2.11-3.23-5.19-4.85-9.26-4.85-3.43,0-6.37,1.27-8.77,3.77-2.4,2.5-3.62,5.54-3.62,9.11s1.22,6.66,3.62,9.16c2.4,2.5,5.34,3.72,8.77,3.72,4.07,0,7.15-1.62,9.26-4.85v4.21h4.26v-34.29h-4.26v14.01Zm-2.5,14.3c-1.67,1.67-3.72,2.5-6.22,2.5s-4.51-.83-6.17-2.5c-1.67-1.71-2.5-3.77-2.5-6.27s.83-4.56,2.5-6.22c1.67-1.71,3.72-2.55,6.17-2.55s4.56.83,6.22,2.55c1.67,1.67,2.5,3.72,2.5,6.22s-.83,4.56-2.5,6.27Z"/>
        <path class="cls-1" d="m567.54,277.73c-3.58,0-6.66,1.22-9.16,3.72-2.5,2.5-3.72,5.54-3.72,9.16s1.22,6.66,3.72,9.16c2.5,2.5,5.58,3.72,9.16,3.72s6.66-1.22,9.16-3.72c2.5-2.5,3.77-5.53,3.77-9.16s-1.27-6.66-3.77-9.16c-2.5-2.5-5.58-3.72-9.16-3.72Zm6.17,19.1c-1.67,1.67-3.72,2.5-6.17,2.5s-4.46-.83-6.12-2.5-2.5-3.72-2.5-6.22.83-4.56,2.5-6.22,3.72-2.5,6.12-2.5,4.51.83,6.17,2.5c1.67,1.67,2.5,3.72,2.5,6.22s-.83,4.56-2.5,6.22Z"/>
        <path class="cls-1" d="m589.78,282.49v-4.11h-4.26v24.49h4.26v-12.98c0-2.69.73-4.6,2.25-5.83,1.52-1.22,3.28-1.76,5.39-1.67v-4.46c-3.67,0-6.22,1.52-7.64,4.56Z"/>
        <path class="cls-1" d="m609.18,288.66c-2.69-.73-4.85-1.76-4.85-3.67,0-2.11,1.96-3.28,4.36-3.28,2.6,0,4.36,1.03,5.24,3.14l3.58-2.01c-1.57-3.18-4.85-5.09-8.82-5.09-2.5,0-4.56.69-6.22,2.06-1.62,1.37-2.45,3.14-2.45,5.24,0,5.19,5,6.47,8.87,7.49,2.69.64,4.85,1.71,4.85,3.62,0,2.3-2.06,3.33-4.85,3.33-2.99,0-5.29-1.47-6.07-3.82l-3.67,2.11c1.42,3.48,5,5.73,9.75,5.73,2.69,0,4.85-.69,6.56-2.01,1.71-1.32,2.6-3.13,2.6-5.34.05-5.24-5.04-6.66-8.87-7.49Z"/>
      </g>
    </g>
  </g>
</svg>