<?xml version="1.0" encoding="UTF-8"?>
<svg id="Layer_2" data-name="Layer 2" xmlns="http://www.w3.org/2000/svg" viewBox="0 0 1140 232.74">
  <defs>
    <style>
      .cls-1 {
        fill: #000;
      }

      .cls-1, .cls-2, .cls-3, .cls-4, .cls-5, .cls-6, .cls-7 {
        stroke-width: 0px;
      }

      .cls-2 {
        fill: #c1272d;
      }

      .cls-3 {
        fill: #221f1f;
      }

      .cls-4 {
        fill: #fff;
      }

      .cls-5 {
        fill: #244ad0;
      }

      .cls-6 {
        fill: #1b1464;
      }

      .cls-7 {
        fill: #de2935;
      }
    </style>
  </defs>
  <g id="Layer_1-2" data-name="Layer 1">
    <g>
      <g>
        <path class="cls-4" d="M529.73,199.31l-18.81-36.47c-3.45-6.68-10.26-10.83-17.78-10.83h-.23c.33-.45.65-.91.94-1.39,3.61-5.91,3.88-13.41.71-19.57l-57.57-111.83c-3.44-6.69-10.26-10.85-17.78-10.85s-14.34,4.16-17.78,10.85l-60.1,116.79c-3.93-13.69-11.8-25.79-22.35-35.08h5.15c11.03,0,20-8.97,20-20,0-40.9-34.22-74.18-76.29-74.18-31.54,0-58.67,18.69-70.29,45.27-19.85-26.51-51.27-43.66-86.56-43.66C51.17,8.37,2.5,57.74,2.5,118.44s48.67,110.04,108.49,110.04c53.63,0,98.3-39.58,107.06-91.42,13.38,11.22,30.78,18.03,49.8,18.03,1.79,0,3.31.37,4.49.84-1.13.45-2.56.81-4.26.84-.08,0-.15,0-.23,0-11.03,0-20,8.97-20,20v33.48c0,11.03,8.97,20,20,20,15.22,0,29.4-4.38,41.32-11.9.1.18.2.37.31.55,3.61,5.91,10.15,9.58,17.07,9.58h38.8c7.53,0,14.34-4.16,17.79-10.85l36.09-70.18.98,1.91c3.44,6.69,10.26,10.85,17.78,10.85h.26c-.33.45-.65.91-.94,1.38-3.61,5.91-3.88,13.41-.72,19.56l18.74,36.47c3.44,6.7,10.26,10.86,17.79,10.86h38.83c6.93,0,13.47-3.68,17.08-9.59,3.61-5.92,3.88-13.42.7-19.58ZM110.99,156.29c-20.93,0-37.96-17.02-37.96-37.94s17.03-37.94,37.96-37.94,37.96,17.02,37.96,37.94-17.03,37.94-37.96,37.94ZM267.84,81.76c-1.8,0-3.32-.37-4.5-.84,1.18-.47,2.71-.85,4.5-.85,3.12,0,5.41,1.13,6.52,1.96-2.15-.18-4.32-.27-6.52-.27Z"/>
        <path class="cls-3" d="M267.84,232.74c-12.41,0-22.5-10.09-22.5-22.5v-33.48c0-8.6,4.85-16.09,11.96-19.88-13.63-1.8-26.6-7.06-37.57-15.3-5.03,24.23-17.98,46.29-36.76,62.51-20.07,17.33-45.64,26.88-71.99,26.88C49.79,230.98,0,180.49,0,118.44S49.79,5.87,110.99,5.87c33.67,0,64.79,15.04,86.04,41.41,13.21-26.27,40.56-43.02,70.81-43.02,43.44,0,78.79,34.4,78.79,76.68,0,12.05-9.52,21.91-21.43,22.47,7.33,7.56,12.98,16.45,16.64,26.17l57.37-111.5c3.87-7.53,11.54-12.21,20.01-12.21s16.13,4.68,20.01,12.2l57.57,111.83c3.21,6.23,3.29,13.68.32,19.95,6.84,1.21,12.78,5.52,16.04,11.84l18.81,36.47h0c3.57,6.93,3.27,15.37-.79,22.02-4.06,6.65-11.42,10.79-19.21,10.79h-38.83c-8.47,0-16.14-4.68-20.01-12.22l-18.74-36.47c-3.2-6.22-3.27-13.66-.31-19.93-6.01-1.06-11.33-4.51-14.75-9.61l-33.96,66.02c-3.87,7.53-11.54,12.21-20.01,12.21h-38.8c-7.16,0-13.96-3.49-18.16-9.22-12.25,7.2-26.21,10.99-40.54,10.99ZM267.84,159.27c-9.65,0-17.5,7.85-17.5,17.5v33.48c0,9.65,7.85,17.5,17.5,17.5,14.21,0,28.04-3.98,39.99-11.51.58-.36,1.28-.48,1.94-.31.66.17,1.23.6,1.57,1.19l.12.22c.05.09.09.17.15.26,3.16,5.17,8.88,8.39,14.94,8.39h38.8c6.59,0,12.55-3.64,15.56-9.5l36.09-70.18c.43-.83,1.29-1.36,2.22-1.36s1.79.52,2.22,1.36l.98,1.91c3.01,5.85,8.98,9.49,15.56,9.49h.26c.94,0,1.8.53,2.23,1.37s.34,1.85-.21,2.61c-.34.46-.6.85-.82,1.21-3.16,5.17-3.4,11.73-.63,17.12l18.74,36.47c3.01,5.86,8.98,9.5,15.57,9.5h38.83c6.06,0,11.79-3.21,14.94-8.39,3.16-5.18,3.39-11.74.61-17.13l-18.81-36.47c-3.02-5.85-8.98-9.48-15.55-9.48h-.23c-.94,0-1.8-.53-2.23-1.37-.43-.84-.34-1.85.22-2.61.34-.46.6-.84.82-1.21,3.16-5.17,3.39-11.74.62-17.12l-57.57-111.83c-3.01-5.85-8.98-9.49-15.56-9.49s-12.55,3.64-15.56,9.49l-60.1,116.79c-.47.91-1.45,1.45-2.47,1.34-1.02-.1-1.88-.81-2.16-1.8-3.74-13.03-11.21-24.74-21.6-33.89-.78-.69-1.05-1.79-.69-2.76.37-.97,1.3-1.62,2.34-1.62h5.15c9.65,0,17.5-7.85,17.5-17.5,0-39.52-33.1-71.68-73.79-71.68-29.69,0-56.38,17.18-68,43.77-.36.82-1.12,1.38-2,1.48-.89.1-1.76-.27-2.29-.98-20.3-27.11-51.13-42.66-84.56-42.66C52.55,10.87,5,59.12,5,118.44s47.55,107.54,105.99,107.54c51.86,0,95.85-37.57,104.59-89.34.15-.88.76-1.62,1.6-1.93.84-.31,1.78-.15,2.47.43,13.41,11.25,30.53,17.44,48.19,17.44,1.9,0,3.72.34,5.42,1.02.95.38,1.57,1.3,1.57,2.32,0,1.02-.62,1.94-1.57,2.32-1.61.65-3.34.99-5.14,1.03h-.28ZM110.99,158.79c-22.31,0-40.46-18.14-40.46-40.44s18.15-40.44,40.46-40.44,40.46,18.14,40.46,40.44-18.15,40.44-40.46,40.44ZM110.99,82.9c-19.55,0-35.46,15.9-35.46,35.44s15.91,35.44,35.46,35.44,35.46-15.9,35.46-35.44-15.91-35.44-35.46-35.44ZM274.36,84.53c-.07,0-.14,0-.21,0-2.08-.17-4.21-.26-6.31-.26-1.91,0-3.74-.34-5.43-1.02-.95-.38-1.57-1.3-1.57-2.32,0-1.02.62-1.94,1.57-2.32,1.7-.68,3.53-1.03,5.43-1.03,4.39,0,7.25,1.88,8.01,2.45.89.67,1.24,1.85.84,2.89-.37.98-1.31,1.61-2.34,1.61Z"/>
      </g>
      <g>
        <path class="cls-6" d="M110.99,213.48c-51.55,0-93.49-42.63-93.49-95.04S59.44,23.37,110.99,23.37s93.62,42.65,93.62,95.07-42,95.04-93.62,95.04ZM110.99,65.4c-29.2,0-52.96,23.75-52.96,52.94s23.76,52.94,52.96,52.94,52.96-23.75,52.96-52.94-23.76-52.94-52.96-52.94Z"/>
        <path class="cls-6" d="M326.54,213.48c-1.74,0-3.36-.91-4.27-2.4-.91-1.49-.98-3.34-.18-4.89L414.77,26.08c.86-1.67,2.57-2.71,4.45-2.71s3.59,1.05,4.45,2.71l57.58,111.83c.8,1.55.73,3.4-.18,4.89s-2.53,2.4-4.27,2.4h-38.8c-1.87,0-3.59-1.05-4.45-2.71l-14.33-27.83-49.43,96.11c-.86,1.67-2.57,2.71-4.45,2.71h-38.8Z"/>
        <path class="cls-6" d="M473.12,213.48c-1.87,0-3.59-1.05-4.45-2.71l-18.74-36.47c-.8-1.55-.73-3.4.18-4.89.91-1.49,2.52-2.4,4.27-2.4h38.77c1.87,0,3.59,1.05,4.44,2.71l18.8,36.47c.8,1.55.73,3.4-.17,4.89-.91,1.49-2.53,2.4-4.27,2.4h-38.83Z"/>
        <path class="cls-6" d="M267.84,215.24c-2.76,0-5-2.24-5-5v-33.48c0-2.76,2.24-5,5-5,.06,0,.11,0,.17,0,11.54-.07,21.62-7.45,21.62-15.86s-10.18-15.83-21.79-15.83c-33.81,0-61.32-26.53-61.32-59.15s27.51-59.18,61.32-59.18,61.29,26.55,61.29,59.18c0,2.76-2.24,5-5,5h-29.5c-2.76,0-5-2.24-5-5,0-8.45-10.18-15.86-21.79-15.86s-21.83,7.41-21.83,15.86,10.2,15.83,21.83,15.83c33.79,0,61.29,26.53,61.29,59.15s-27.49,59.34-61.29,59.34Z"/>
      </g>
      <g>
        <path class="cls-5" d="M110.99,28.37c-48.78,0-88.49,40.43-88.49,90.07s39.7,90.04,88.49,90.04,88.62-40.37,88.62-90.04S159.77,28.37,110.99,28.37h0ZM110.99,176.29c-32.01,0-57.96-25.94-57.96-57.94s25.95-57.94,57.96-57.94,57.96,25.94,57.96,57.94-25.95,57.94-57.96,57.94h0Z"/>
        <polygon class="cls-5" points="419.22 103.72 437.99 140.2 476.79 140.2 419.22 28.37 326.54 208.48 365.34 208.48 419.22 103.72"/>
        <polygon class="cls-5" points="473.12 208.48 511.96 208.48 493.15 172 454.38 172 473.12 208.48"/>
        <path class="cls-5" d="M267.84,176.76v33.48c31.04,0,56.29-24.46,56.29-54.34s-25.24-54.15-56.29-54.15c-14.56,0-26.83-9.62-26.83-20.83s12.3-20.86,26.83-20.86,26.79,9.56,26.79,20.86h29.5c0-29.87-25.21-54.18-56.29-54.18s-56.32,24.3-56.32,54.18,25.24,54.15,56.32,54.15c14.52,0,26.79,9.62,26.79,20.83s-12.27,20.86-26.79,20.86h0Z"/>
      </g>
      <g>
        <path class="cls-4" d="M552.45,106.08c-3.56,0-7.01-.87-10.09-2.46-3.07,1.59-6.52,2.46-10.08,2.46h-22.27c-8.19,0-15.64-4.52-19.43-11.78-3.81-7.32-3.22-16.05,1.55-22.78l12.36-17.58-11.91-16.94c-4.73-6.79-5.29-15.5-1.48-22.76,3.74-7.22,11.19-11.74,19.4-11.74h22.27c3.36,0,6.63.78,9.58,2.21,2.95-1.43,6.21-2.21,9.58-2.21h22.27c8.22,0,15.67,4.53,19.45,11.82,3.76,7.25,3.19,15.92-1.48,22.61l-11.89,17.01,12.37,17.67c4.69,6.73,5.26,15.4,1.5,22.64-3.78,7.29-11.23,11.82-19.45,11.82h-22.27Z"/>
        <path class="cls-3" d="M574.71,108.58h-22.27c-3.47,0-6.93-.75-10.09-2.18-3.16,1.43-6.62,2.18-10.08,2.18h-22.27c-9.13,0-17.42-5.03-21.64-13.13-4.25-8.15-3.59-17.88,1.73-25.38l11.35-16.13-10.89-15.5c-5.26-7.55-5.89-17.26-1.65-25.36,4.18-8.06,12.46-13.08,21.61-13.08h22.27c3.27,0,6.56.68,9.58,1.96,3.02-1.29,6.3-1.96,9.58-1.96h22.27c9.15,0,17.45,5.05,21.67,13.17,4.19,8.08,3.56,17.73-1.65,25.19l-10.89,15.58,11.37,16.24c5.22,7.49,5.86,17.15,1.68,25.23-4.21,8.13-12.51,13.17-21.67,13.17ZM542.36,101.12c.39,0,.79.09,1.15.28,2.75,1.43,5.84,2.18,8.94,2.18h22.27c7.28,0,13.88-4.01,17.23-10.47,3.33-6.42,2.82-14.11-1.34-20.06l-12.37-17.67c-.6-.86-.6-2.01,0-2.87l11.89-17.01c4.13-5.93,4.63-13.61,1.31-20.03-3.35-6.46-9.95-10.47-17.23-10.47h-22.27c-2.92,0-5.85.68-8.48,1.96-.69.34-1.5.34-2.19,0-2.63-1.28-5.57-1.96-8.49-1.96h-22.27c-7.28,0-13.86,3.98-17.18,10.39-3.38,6.45-2.88,14.17,1.31,20.18l11.9,16.94c.61.86.61,2.01,0,2.88l-12.36,17.58c-4.23,5.97-4.76,13.7-1.38,20.19,3.36,6.44,9.95,10.44,17.21,10.44h22.27c3.09,0,6.18-.75,8.93-2.18.36-.19.76-.28,1.15-.28Z"/>
      </g>
      <path class="cls-2" d="M552.45,91.08c-2.26,0-4.38-1.1-5.67-2.95l-4.4-6.29-4.46,6.32c-1.29,1.83-3.4,2.92-5.64,2.92h-22.27c-2.58,0-4.93-1.42-6.13-3.72-1.2-2.3-1.01-5.05.49-7.17l18.46-26.24-17.97-25.57c-1.49-2.14-1.67-4.88-.47-7.17,1.18-2.28,3.53-3.71,6.12-3.71h22.27c2.24,0,4.35,1.09,5.65,2.92l3.95,5.61,3.89-5.58c1.29-1.85,3.41-2.95,5.66-2.95h22.27c2.59,0,4.94,1.43,6.13,3.72,1.19,2.29,1.01,5.02-.46,7.13l-17.89,25.59,18.39,26.27c1.48,2.12,1.66,4.85.47,7.14-1.19,2.3-3.54,3.72-6.13,3.72h-22.27Z"/>
      <path class="cls-7" d="M552.44,86.08c-.62,0-1.21-.3-1.56-.81l-8.48-12.12-8.57,12.13c-.36.51-.94.81-1.55.81h-22.27c-.71,0-1.36-.4-1.69-1.03s-.28-1.39.13-1.97l20.49-29.13-19.99-28.45c-.41-.58-.46-1.34-.13-1.97.33-.63.98-1.03,1.69-1.03h22.27c.62,0,1.2.3,1.56.81l8.06,11.44,7.97-11.43c.36-.51.94-.81,1.56-.81h22.27c.71,0,1.36.4,1.69,1.02.33.63.28,1.39-.13,1.97l-19.89,28.45,20.4,29.14c.41.58.46,1.34.13,1.97s-.98,1.02-1.69,1.02h-22.27Z"/>
    </g>
    <g>
      <g>
        <path class="cls-4" d="M1135.73,187.73c1.8-5.12,1.43-10.83-1.02-15.68-6.17-12.18-17.99-19.17-32.42-19.17-3.65,0-7.13.47-10.43,1.4-2.07-.72-4.28-1.11-6.55-1.11-2.61,0-5.2.31-7.71.92-.96-.14-1.93-.21-2.9-.21h-11.74c-3.14,0-6.12.73-8.77,2.03-4.72-1.99-9.86-3.02-15.29-3.02-1.72,0-3.42.1-5.08.31-2.71-7.83-10.16-13.47-18.91-13.47h-11.74c-9.04,0-16.69,6.03-19.16,14.27-1.59.4-3.14.92-4.64,1.53-2.44-1.06-5.14-1.66-7.97-1.66h-11.74c-.44,0-.88.01-1.32.04-2.77-.69-5.69-1.03-8.73-1.03-.25,0-.49.02-.74.02,1.58-2.87,2.49-6.14,2.49-9.61v-10.61c0-2.31-.41-4.6-1.18-6.74.76-2.12,1.18-4.39,1.18-6.77v-11.25c0-6.71-3.32-12.66-8.41-16.29-1.29-3.82-3.72-7.22-7.02-9.67-3.42-2.54-7.66-3.94-11.93-3.94-1.96,0-3.9.29-5.77.85l-11.74,3.54c-3.45,1.04-6.45,2.92-8.78,5.39-2.47-.57-5.04-.86-7.67-.86-3,0-5.88.34-8.62,1.03-.4-.02-.81-.04-1.21-.04h-11.74c-3,0-5.85.66-8.4,1.85-4.58-1.88-9.58-2.84-14.88-2.84-1.71,0-3.38.1-5.02.29-1.49-4.29-4.42-7.92-8.19-10.32,2.22-1.37,4.31-2.99,6.25-4.85,7.36-7.06,11.26-16.36,11.26-26.89s-3.89-19.83-11.26-26.89c-7.13-6.83-16.27-10.44-26.43-10.44h-19.24c-3.05,0-5.95.69-8.54,1.92-4.85-1.96-10.18-2.98-15.8-2.98s-10.59,1-15.31,2.94c-2.57-1.21-5.44-1.88-8.46-1.88h-12.66c-4.23,0-8.17,1.32-11.4,3.58-6.21-3.06-13.1-4.64-20.44-4.64-12.58,0-23.83,4.6-32.55,13.3-8.78,8.67-13.42,19.92-13.42,32.52,0,11.68,4.01,22.24,11.63,30.71-6.69,6.53-10.22,15.05-10.22,24.77,0,4.17.68,8.14,1.99,11.82-4.05,5.29-5.31,12.42-2.9,19.01,2.72,7.45,7.37,13.48,13.44,17.81l-15.27,46.28c-2.01,6.08-.96,12.8,2.78,17.98,3.75,5.19,9.81,8.28,16.21,8.28h13.73c3.73,0,7.3-1.06,10.36-2.93,3.06,1.87,6.63,2.93,10.36,2.93h13.65c.53,0,1.05-.02,1.57-.06.51.04,1.03.06,1.54.06h11.74c1.59,0,3.16-.19,4.67-.56,1.51.37,3.08.56,4.67.56h11.74c1.59,0,3.14-.18,4.63-.54,1.49.35,3.05.54,4.63.54h11.81c1.07,0,2.14-.09,3.19-.26,1.05.17,2.12.26,3.19.26h11.74c.44,0,.88-.01,1.32-.04,2.77.69,5.69,1.04,8.73,1.04,6.67,0,12.86-1.69,18.29-4.96,5.44,3.27,11.65,4.96,18.36,4.96,3.04,0,5.96-.35,8.73-1.03.44.03.88.04,1.32.04h11.74c2.23,0,4.39-.37,6.42-1.06,4.16,1.37,8.72,2.05,13.68,2.05,5.53,0,10.71-.98,15.49-2.93,4.25,1.73,9.54,2.93,16,2.93s12.5-1.36,17.94-4.04c5.04,2.66,10.68,4.04,16.73,4.04,3.04,0,5.96-.35,8.73-1.03.44.03.88.04,1.32.04h11.74c2.83,0,5.52-.59,7.96-1.65,4.25,1.75,8.87,2.65,13.76,2.65,3.04,0,5.96-.35,8.73-1.03.44.03.88.04,1.32.04h11.74c3.13,0,6.09-.72,8.72-2,4.72,1.98,9.85,3,15.26,3s10.62-1.02,15.33-3c2.64,1.28,5.6,2.01,8.73,2.01h11.74c3.61,0,7-.96,9.93-2.64,5.15,2.38,11.09,3.63,17.59,3.63,7.89,0,15.09-2.01,21.39-5.96,8.81-5.53,13.87-14.94,13.89-25.82.03-3.78-.58-7.39-1.77-10.73Z"/>
        <path class="cls-3" d="M1102.22,232.74c-6.35,0-12.23-1.13-17.49-3.35-3.1,1.55-6.55,2.36-10.03,2.36h-11.74c-3.06,0-6.01-.6-8.79-1.79-4.76,1.84-9.89,2.78-15.27,2.78s-10.44-.93-15.2-2.78c-2.78,1.19-5.73,1.79-8.79,1.79h-11.74c-.36,0-.73,0-1.09-.03-2.85.68-5.87,1.02-8.96,1.02-4.83,0-9.44-.82-13.74-2.45-2.55.97-5.23,1.46-7.98,1.46h-11.74c-.36,0-.73,0-1.09-.03-2.85.68-5.86,1.02-8.96,1.02-6,0-11.63-1.26-16.76-3.75-5.48,2.49-11.5,3.75-17.91,3.75-5.76,0-11.14-.92-15.99-2.75-4.81,1.82-10.02,2.75-15.49,2.75-4.89,0-9.49-.65-13.68-1.93-2.08.62-4.24.94-6.42.94h-11.74c-.36,0-.73,0-1.09-.03-2.85.68-5.86,1.02-8.96,1.02-6.64,0-12.81-1.54-18.36-4.58-5.54,3.04-11.68,4.58-18.29,4.58-3.09,0-6.1-.34-8.95-1.02-.36.02-.73.03-1.09.03h-11.74c-1.06,0-2.13-.08-3.19-.23-1.06.15-2.12.23-3.19.23h-11.81c-1.56,0-3.12-.16-4.63-.48-1.52.32-3.07.48-4.63.48h-11.74c-1.56,0-3.13-.17-4.67-.5-1.54.33-3.1.5-4.67.5h-11.74c-.51,0-1.03-.02-1.54-.06-.52.04-1.05.06-1.57.06h-13.65c-3.6,0-7.16-.88-10.36-2.56-3.21,1.68-6.76,2.56-10.36,2.56h-13.73c-7.2,0-14.02-3.48-18.23-9.32-4.22-5.83-5.39-13.4-3.13-20.23l14.71-44.57c-5.82-4.58-10.25-10.73-12.85-17.88-2.49-6.83-1.56-14.32,2.48-20.28-1.14-3.61-1.71-7.44-1.71-11.41,0-9.56,3.22-18.11,9.34-24.87-7.05-8.62-10.76-19.15-10.76-30.61,0-13.29,4.9-25.15,14.16-34.3,9.19-9.17,21.05-14.02,34.31-14.02,7.2,0,14.01,1.44,20.25,4.28,3.5-2.11,7.47-3.22,11.59-3.22h12.66c2.95,0,5.81.56,8.51,1.67,4.77-1.81,9.89-2.73,15.26-2.73s10.82.93,15.74,2.77c2.73-1.14,5.62-1.71,8.61-1.71h19.24c10.82,0,20.56,3.85,28.16,11.14,7.87,7.54,12.03,17.47,12.03,28.7s-4.16,21.16-12.03,28.7c-1.18,1.13-2.42,2.18-3.71,3.15,2.35,2.1,4.25,4.68,5.55,7.55,1.12-.08,2.26-.12,3.39-.12,5.22,0,10.2.89,14.83,2.64,2.68-1.09,5.52-1.65,8.45-1.65h11.74c.33,0,.65,0,.98.02,4.96-1.18,10.52-1.36,15.72-.37,2.51-2.32,5.55-4.06,8.86-5.06l11.74-3.54c2.11-.63,4.29-.96,6.49-.96,4.8,0,9.56,1.58,13.42,4.44,3.47,2.58,6.09,6.06,7.62,10.12,5.54,4.25,8.82,10.87,8.82,17.85v11.25c0,2.31-.35,4.58-1.04,6.77.69,2.19,1.04,4.45,1.04,6.74v10.61c0,2.44-.41,4.88-1.2,7.2,2.02.15,4,.45,5.91.9.36-.02.73-.03,1.09-.03h11.74c2.75,0,5.43.49,7.98,1.46.88-.33,1.77-.63,2.68-.9,3.24-8.73,11.72-14.71,21.11-14.71h11.74c8.91,0,16.93,5.27,20.53,13.29,1.14-.09,2.3-.14,3.46-.14,5.35,0,10.47.94,15.23,2.79,2.79-1.2,5.76-1.8,8.83-1.8h11.74c.92,0,1.86.06,2.78.17,4.76-1.09,9.8-1.32,14.46.12,3.29-.85,6.77-1.29,10.36-1.29,15.41,0,28.03,7.49,34.65,20.54,2.62,5.18,3.13,11.25,1.43,16.79,1.11,3.41,1.66,7.02,1.63,10.76-.02,11.74-5.51,21.92-15.06,27.92-6.7,4.21-14.35,6.35-22.72,6.35ZM1084.62,224.11c.36,0,.71.08,1.05.23,4.89,2.26,10.45,3.4,16.54,3.4,7.41,0,14.16-1.88,20.06-5.58,8.07-5.07,12.71-13.71,12.72-23.7.02-3.47-.52-6.79-1.63-9.89-.19-.54-.19-1.13,0-1.67,1.58-4.48,1.25-9.48-.9-13.72-5.73-11.31-16.73-17.8-30.19-17.8-3.4,0-6.68.44-9.75,1.3-.49.14-1.02.12-1.5-.05-1.85-.65-3.77-.97-5.73-.97-2.4,0-4.79.29-7.12.85-.31.08-.64.09-.96.04-.84-.12-1.69-.19-2.53-.19h-11.74c-2.69,0-5.27.6-7.67,1.77-.65.32-1.41.34-2.07.06-4.43-1.87-9.25-2.82-14.32-2.82-1.61,0-3.21.1-4.77.29-1.17.14-2.29-.55-2.67-1.66-2.44-7.05-9.09-11.79-16.54-11.79h-11.74c-7.67,0-14.57,5.14-16.77,12.49-.25.84-.93,1.49-1.78,1.71-1.47.37-2.92.85-4.3,1.42-.63.26-1.33.25-1.95-.02-2.2-.96-4.55-1.45-6.97-1.45h-11.74c-.38,0-.77.01-1.15.04-.26.02-.52,0-.77-.07-2.57-.64-5.3-.96-8.12-.96-.11,0-.22,0-.34,0h-.36c-.89.03-1.73-.43-2.19-1.19s-.48-1.72-.05-2.5c1.42-2.59,2.18-5.5,2.18-8.41v-10.61c0-2.01-.35-3.99-1.03-5.9-.2-.55-.2-1.15,0-1.69.68-1.9,1.03-3.89,1.03-5.92v-11.25c0-5.64-2.75-10.97-7.37-14.26-.43-.3-.75-.74-.92-1.23-1.15-3.41-3.28-6.33-6.14-8.46-4.37-3.25-10.27-4.28-15.48-2.71l-11.74,3.54c-2.95.89-5.61,2.52-7.69,4.72-.61.64-1.51.92-2.37.72-4.95-1.14-10.39-1.03-15.12.16-.25.06-.5.09-.76.07-.35-.02-.71-.03-1.06-.03h-11.74c-2.57,0-5.04.54-7.35,1.62-.63.29-1.36.31-2,.05-4.3-1.76-8.98-2.66-13.93-2.66-1.6,0-3.19.09-4.73.27-1.17.14-2.27-.56-2.65-1.66-1.29-3.7-3.83-6.91-7.17-9.04-.73-.46-1.16-1.26-1.16-2.12,0-.86.45-1.66,1.18-2.11,2.07-1.28,4.03-2.81,5.83-4.53,6.86-6.57,10.49-15.25,10.49-25.09s-3.63-18.51-10.49-25.09c-6.65-6.38-15.19-9.75-24.7-9.75h-19.24c-2.61,0-5.13.56-7.47,1.68-.63.3-1.36.32-2.01.06-4.6-1.86-9.6-2.8-14.86-2.8s-9.92.93-14.36,2.75c-.65.27-1.38.25-2.01-.05-2.33-1.09-4.82-1.64-7.4-1.64h-12.66c-3.59,0-7.04,1.08-9.97,3.13-.75.52-1.72.59-2.53.19-5.9-2.91-12.4-4.38-19.33-4.38-11.9,0-22.54,4.35-30.78,12.57-8.3,8.2-12.68,18.83-12.68,30.75,0,11,3.8,21.04,10.99,29.04.9,1,.85,2.52-.11,3.46-6.19,6.04-9.46,13.99-9.46,22.98,0,3.85.62,7.55,1.85,10.99.28.8.15,1.69-.37,2.36-3.65,4.77-4.6,10.98-2.54,16.63,2.51,6.89,6.73,12.48,12.54,16.63.89.64,1.27,1.78.92,2.82l-15.27,46.28c-1.76,5.32-.84,11.2,2.44,15.74,3.28,4.54,8.58,7.25,14.18,7.25h13.73c3.18,0,6.31-.89,9.06-2.56.8-.49,1.8-.49,2.6,0,2.75,1.68,5.89,2.56,9.06,2.56h13.65c.46,0,.92-.02,1.38-.06.13-.01.27-.01.4,0,.45.04.89.05,1.34.05h11.74c1.37,0,2.74-.17,4.08-.49.39-.09.79-.1,1.18,0,1.34.33,2.71.49,4.08.49h11.74c1.37,0,2.74-.16,4.06-.47.38-.09.77-.09,1.15,0,1.32.31,2.69.47,4.06.47h11.81c.93,0,1.86-.08,2.78-.23.27-.04.54-.04.81,0,.92.15,1.86.23,2.78.23h11.74c.38,0,.77-.01,1.15-.04.26-.02.52,0,.77.07,2.57.64,5.31.96,8.12.96,6.2,0,11.92-1.55,17-4.6.79-.48,1.78-.48,2.58,0,5.09,3.05,10.83,4.6,17.07,4.6,2.82,0,5.56-.32,8.13-.96.25-.06.51-.09.77-.07.38.03.77.04,1.15.04h11.74c1.92,0,3.8-.31,5.61-.93.52-.18,1.07-.18,1.59,0,3.89,1.28,8.23,1.93,12.9,1.93,5.18,0,10.08-.92,14.55-2.75.6-.25,1.28-.25,1.88,0,4.5,1.82,9.56,2.75,15.06,2.75,6.09,0,11.75-1.27,16.84-3.78.72-.35,1.56-.34,2.27.03,4.71,2.49,9.94,3.75,15.56,3.75,2.82,0,5.56-.32,8.12-.96.25-.06.51-.09.77-.07.38.03.77.04,1.15.04h11.74c2.42,0,4.76-.49,6.97-1.45.62-.27,1.33-.28,1.95-.02,3.96,1.63,8.27,2.46,12.81,2.46,2.82,0,5.55-.32,8.13-.96.25-.06.51-.09.77-.07.38.03.77.04,1.15.04h11.74c2.67,0,5.24-.59,7.63-1.75.65-.32,1.4-.34,2.06-.06,4.43,1.86,9.24,2.8,14.29,2.8s9.93-.94,14.37-2.8c.66-.28,1.41-.26,2.06.06,2.39,1.16,4.96,1.75,7.63,1.75h11.74c3.05,0,6.05-.8,8.68-2.31.38-.22.81-.33,1.25-.33Z"/>
      </g>
      <g>
        <path class="cls-1" d="M699.91,83.41c8.57,0,15.94-2.98,21.93-8.89,1.95-1.95,3.59-4.06,4.91-6.3v9.13c0,2.76,2.24,5,5,5h12.66c2.76,0,5-2.24,5-5v-1.22c4.67,4.7,11.47,7.28,19.69,7.28,6.8,0,12.44-1.75,16.77-5.19.59-.47,1.14-.96,1.65-1.47v.6c0,2.76,2.24,5,5,5h12.66c2.76,0,5-2.24,5-5v-9.86h1.58c6.31,0,11.71-2.11,16.05-6.27,4.4-4.22,6.64-9.62,6.64-16.06s-2.23-11.84-6.64-16.06c-4.34-4.16-9.74-6.27-16.05-6.27h-19.24c-2.76,0-5,2.24-5,5v2.48c-4.61-5.49-11.37-8.54-19.34-8.54-6.08,0-11.31,1.83-15.59,5.47-1.24,1.08-2.29,2.26-3.18,3.53v-2.94c0-2.76-2.24-5-5-5h-12.66c-2.76,0-5,2.24-5,5v9.14c-1.32-2.23-2.96-4.31-4.91-6.24-5.95-5.95-13.33-8.96-21.93-8.96s-16.05,3.02-21.98,8.94c-5.96,5.88-8.99,13.24-8.99,21.88s3.02,15.98,8.99,21.96c5.97,5.88,13.36,8.87,21.98,8.87ZM810.2,44.92h1.58c.01.06.02.13.02.23,0,.15-.02.25-.04.31h-1.56v-.54ZM787.53,43.32v6.14c-.66-.59-1.32-1.09-1.96-1.51-.98-.67-1.94-1.26-2.89-1.79l4.85-2.84ZM753.65,57.54l-4.23,2.46v-6.68c1.23,1.69,2.69,3.08,4.23,4.22ZM693.9,46.5c1.61-1.61,3.52-2.36,6.02-2.36s4.41.75,6.07,2.41c1.55,1.51,2.31,3.48,2.31,6.04s-.75,4.55-2.31,6.11c-1.64,1.59-3.56,2.33-6.06,2.33s-4.43-.74-6.02-2.29c-1.61-1.61-2.36-3.56-2.36-6.16s.75-4.53,2.36-6.09Z"/>
        <path class="cls-1" d="M693.48,149.36c6.8,0,12.44-1.75,16.77-5.19,2-1.59,3.54-3.45,4.7-5.55,1.03,2.79,2.61,5.05,4.76,6.72.04.03.07.06.11.08,2.98,2.18,7,3.24,12.31,3.24h0c1.86,0,3.91-.13,6.1-.4,2.51-.3,4.4-2.44,4.4-4.96v-.19c3.17,3.91,7.86,6.18,13.54,6.18,3.09,0,5.61-.59,7.65-1.49.66.32,1.4.5,2.18.5h11.74c2.76,0,5-2.24,5-5v-2.37c.36.47.72.94,1.12,1.39,4.16,4.62,9.41,6.96,15.6,6.96,2.9,0,5.52-.5,7.83-1.51.67.33,1.42.52,2.22.52h11.74c2.76,0,5-2.24,5-5v-2.9c.62.78,1.27,1.54,2.01,2.27,4.58,4.4,10.6,6.63,17.9,6.63s12.97-2.16,17.29-6.42v.43c0,2.76,2.24,5,5,5h11.74c2.76,0,5-2.24,5-5v-18.82c0-.83.14-1.23.2-1.37.1-.03.3-.06.6-.06.11,0,.19,0,.26.01.02.12.05.31.05.58v19.67c0,2.76,2.24,5,5,5h11.74c2.76,0,5-2.24,5-5v-6.67c.95,3.74,2.74,6.66,5.38,8.71.04.03.07.06.11.08,2.98,2.18,7,3.24,12.31,3.24,1.86,0,3.91-.13,6.1-.4,2.51-.3,4.4-2.44,4.4-4.96v-10.61c0-1.37-.56-2.68-1.56-3.63-.93-.88-2.16-1.37-3.44-1.37-.09,0-.18,0-.27,0-.77.04-1.46.07-2.07.07h-.02v-3.59h2.36c2.76,0,5-2.24,5-5v-11.25c0-2.76-2.24-5-5-5h-2.36v-4.9c0-1.58-.75-3.07-2.02-4.01-.87-.65-1.92-.99-2.98-.99-.48,0-.97.07-1.44.21l-11.74,3.54c-2.11.64-3.56,2.58-3.56,4.79v1.37h-.31c-2.29,0-4.2,1.55-4.79,3.65-3.09-2.95-7.23-4.64-12.12-4.64-3.09,0-5.61.59-7.65,1.49-.66-.32-1.4-.5-2.18-.5h-11.74c-2.76,0-5,2.24-5,5v2.66c-.5-.63-1.04-1.25-1.62-1.84-4.43-4.52-10.03-6.81-16.66-6.81s-12.61,2.31-17.08,6.88c-.67.68-1.27,1.39-1.83,2.12v-17.15c0-2.76-2.24-5-5-5h-11.74c-2.76,0-5,2.24-5,5v8.74c-1.57-.38-3.25-.58-5.05-.58-6.24,0-11.5,2.38-15.6,7.03-.4.44-.76.91-1.12,1.37v-2.41c0-2.76-2.24-5-5-5h-11.74c-2.76,0-5,2.24-5,5v18.82c0,.83-.14,1.23-.2,1.37-.1.03-.3.06-.6.06-.11,0-.19,0-.26-.01-.02-.12-.05-.31-.05-.58v-19.67c0-2.76-2.24-5-5-5h-11.74c-1.02,0-1.97.31-2.76.83-.79-.53-1.74-.83-2.76-.83h-2.36v-4.9c0-1.58-.75-3.07-2.02-4.01-.87-.65-1.92-.99-2.98-.99-.48,0-.97.07-1.44.21l-11.74,3.54c-1.34.4-2.41,1.34-3.01,2.53-4.49-7.39-12.18-11.58-21.51-11.58-6.08,0-11.31,1.83-15.59,5.47-4.38,3.81-6.6,8.82-6.6,14.88,0,7.62,3.56,12.39,7.65,15.42l-7.29,4.24c-2.09,1.22-3.01,3.76-2.18,6.03,3.61,9.91,12.7,15.6,24.93,15.6ZM800.33,123.47c.15-.15.54-.57,1.75-.57s1.6.41,1.75.57c.32.33.68.88.68,2.15s-.36,1.81-.68,2.15c-.15.15-.54.57-1.75.57s-1.61-.41-1.75-.57c-.31-.33-.68-.87-.68-2.15s.36-1.81.68-2.15ZM735.27,124.17h2.36c.18,0,.35-.03.52-.05v3.61c-.17-.02-.34-.05-.52-.05-.09,0-.18,0-.27,0-.77.04-1.46.07-2.07.07h-.02v-3.59ZM708.22,111.43v1.37c-.39-.24-.78-.47-1.17-.69l1.17-.68Z"/>
        <path class="cls-1" d="M1117.12,186.46l1.79-.81c1.25-.56,2.21-1.61,2.66-2.89s.36-2.71-.25-3.92c-2.53-4.99-7.89-10.95-19.03-10.95-4.66,0-8.79,1.22-12.29,3.6-.69-1.93-2.52-3.32-4.69-3.32-2.74,0-5.33.61-7.59,1.73-.84-.64-1.89-1.02-3.03-1.02h-11.74c-2.76,0-5,2.24-5,5v3.36c-.66-.84-1.36-1.66-2.15-2.44-4.59-4.59-10.27-6.91-16.91-6.91s-12.22,2.31-16.87,6.88c-.78.76-1.47,1.56-2.11,2.39v-17.42c0-2.76-2.24-5-5-5h-11.74c-2.76,0-5,2.24-5,5v8.74c-1.57-.38-3.25-.58-5.05-.58-6.24,0-11.5,2.38-15.6,7.03-.4.44-.76.9-1.12,1.37v-2.41c0-2.76-2.24-5-5-5h-11.74c-.8,0-1.55.19-2.22.52-2.31-1-4.93-1.51-7.83-1.51-6.24,0-11.5,2.38-15.6,7.03-.47.52-.91,1.06-1.32,1.61-2.93-4.35-8.21-8.65-17.68-8.65-4.99,0-9.37,1.38-13.03,4.1-.94.7-1.77,1.48-2.5,2.33-3.14-3.49-8.11-6.43-15.95-6.43-4.99,0-9.37,1.38-13.03,4.1-.79.59-1.49,1.25-2.14,1.95v-.06c0-2.76-2.24-5-5-5h-11.74c-.8,0-1.55.19-2.22.52-2.31-1-4.93-1.51-7.83-1.51-6.24,0-11.5,2.38-15.6,7.03-1.06,1.17-1.97,2.44-2.75,3.77-.78-1.32-1.69-2.57-2.74-3.73-4.14-4.69-9.38-7.07-15.56-7.07-1.79,0-3.48.19-5.05.58v-8.74c0-2.76-2.24-5-5-5h-11.74c-2.76,0-5,2.24-5,5v15.38c-3.2-4.54-8.32-7.22-14.67-7.22-3.85,0-7.2.9-10.02,2.69-2.23-1.55-5.24-2.69-9.29-2.69-2.98,0-5.43.58-7.43,1.46-.64-.3-1.36-.47-2.12-.47h-11.74c-2.76,0-5,2.24-5,5v13.71l-9.71-29.43c-.68-2.05-2.59-3.43-4.75-3.43h-15.42c-2.16,0-4.07,1.38-4.75,3.43l-16.34,49.52c-.5,1.52-.24,3.2.7,4.5.94,1.3,2.45,2.07,4.05,2.07h13.73c2.21,0,4.16-1.45,4.79-3.58l1.06-3.57h9.02l1.06,3.57c.63,2.12,2.58,3.58,4.79,3.58h13.65c.55,0,1.08-.1,1.58-.26.49.16.99.26,1.53.26h11.74c2.13,0,3.95-1.33,4.67-3.21.72,1.88,2.54,3.21,4.67,3.21h11.74c2.1,0,3.89-1.29,4.63-3.12.74,1.83,2.54,3.12,4.63,3.12h11.81c1.22,0,2.32-.45,3.19-1.18.87.72,1.97,1.18,3.19,1.18h11.74c.8,0,1.55-.19,2.22-.52,2.31,1,4.93,1.51,7.83,1.51,6.15,0,11.37-2.34,15.56-7,1.05-1.19,1.96-2.46,2.74-3.79.78,1.35,1.69,2.62,2.75,3.82,4.16,4.62,9.41,6.96,15.6,6.96,2.9,0,5.52-.5,7.83-1.51.67.33,1.42.52,2.22.52h11.74c2.32,0,4.25-1.58,4.81-3.72,3.3,2.69,8.14,4.71,15.28,4.71,5.03,0,9.54-1.23,13.41-3.67.69-.44,1.42-.97,2.12-1.61,3.3,2.97,8.31,5.28,15.95,5.28,5.03,0,9.54-1.23,13.41-3.67,1.57-.98,3.29-2.45,4.61-4.59.34.44.67.87,1.04,1.29,4.16,4.62,9.41,6.96,15.6,6.96,2.9,0,5.52-.5,7.83-1.51.67.33,1.42.52,2.21.52h11.74c2.76,0,5-2.24,5-5v-2.36c.36.47.72.94,1.12,1.39,4.16,4.62,9.41,6.96,15.6,6.96,2.9,0,5.52-.5,7.83-1.51.67.33,1.42.52,2.21.52h11.74c2.76,0,5-2.24,5-5v-3.21c.65.82,1.34,1.63,2.11,2.39,4.61,4.52,10.28,6.81,16.87,6.81s12.37-2.3,16.87-6.81c.81-.79,1.52-1.63,2.18-2.48v3.3c0,2.76,2.24,5,5,5h11.74c2.76,0,5-2.24,5-5v-14.65c0-2.11.68-2.55.97-2.73.87-.56,1.79-.83,2.82-.83.28,0,.58.03.88.07.69,1.53,1.72,3.08,3.24,4.49l-3.48,1.75c-2.42,1.22-3.43,4.14-2.28,6.59,2.41,5.15,7.91,11.3,20.38,11.3,5.03,0,9.54-1.23,13.41-3.67,3.13-1.97,6.87-5.86,6.87-13.17.04-4.96-1.84-9.04-5.38-11.94ZM804.05,193.71c-.15.15-.54.57-1.75.57s-1.6-.41-1.75-.57c-.31-.33-.68-.87-.68-2.15s.36-1.81.68-2.15c.15-.15.54-.57,1.75-.57s1.6.41,1.75.57c.31.33.68.88.68,2.15s-.36,1.81-.68,2.15ZM845.93,193.71c-.15.16-.54.57-1.75.57s-1.61-.41-1.75-.57c-.31-.33-.68-.87-.68-2.15s.36-1.81.68-2.15c.15-.15.54-.57,1.75-.57s1.61.41,1.75.57c.32.33.68.88.68,2.15s-.36,1.81-.67,2.15ZM868.35,195.85v-.72c.16.16.31.32.48.48l-.48.24ZM953.97,193.71c-.15.16-.54.57-1.75.57s-1.61-.41-1.75-.57c-.31-.33-.68-.87-.68-2.15s.36-1.81.67-2.14c.15-.16.54-.57,1.75-.57s1.61.41,1.75.57c.32.33.68.88.68,2.15s-.36,1.81-.67,2.15ZM997.49,193.71c-.15.16-.54.57-1.75.57s-1.6-.41-1.75-.57c-.32-.33-.68-.88-.68-2.15s.36-1.81.68-2.15c.15-.15.54-.57,1.75-.57s1.61.41,1.75.57c.32.33.68.88.68,2.15s-.36,1.81-.68,2.15ZM1038.89,193.92c-1.87,0-2.07-1.65-2.07-2.36s.2-2.36,2.07-2.36c1.77,0,2.15,1.28,2.15,2.36s-.37,2.36-2.15,2.36Z"/>
      </g>
      <g>
        <path class="cls-4" d="M699.91,78.41c7.29,0,13.37-2.48,18.39-7.43,5.02-5.02,7.57-11.11,7.57-18.39s-2.55-13.37-7.57-18.32c-5.02-5.02-11.11-7.5-18.39-7.5s-13.44,2.48-18.47,7.5c-5.02,4.95-7.5,11.04-7.5,18.32s2.48,13.37,7.5,18.39c5.02,4.95,11.18,7.43,18.47,7.43ZM690.36,42.96c2.55-2.55,5.73-3.82,9.55-3.82s7,1.27,9.55,3.82c2.55,2.48,3.82,5.73,3.82,9.62s-1.27,7.15-3.82,9.69c-2.55,2.48-5.73,3.75-9.55,3.75s-7-1.27-9.55-3.75c-2.55-2.55-3.82-5.8-3.82-9.69s1.27-7.15,3.82-9.62Z"/>
        <rect class="cls-4" x="731.75" y="27.82" width="12.66" height="49.52"/>
        <path class="cls-4" d="M787.93,62.91c0-4.88-1.7-8.56-5.16-10.82-1.77-1.2-3.33-2.05-4.81-2.69-1.49-.64-3.4-1.27-5.8-1.98-6.72-1.98-8.49-3.18-8.49-5.38,0-1.91,1.56-3.25,4.6-3.25,3.61,0,6.16,1.84,7.71,5.52l10.61-6.23c-3.4-7.36-10.12-11.32-18.39-11.32-4.88,0-8.98,1.42-12.31,4.25-3.25,2.83-4.88,6.51-4.88,11.11,0,8.49,5.66,12.88,14.72,15.49,3.18.92,5.31,1.56,6.23,1.91,2.19.92,3.33,2.05,3.33,3.54,0,2.19-1.91,3.33-5.8,3.33-4.67,0-7.92-2.19-9.76-6.58l-10.82,6.3c2.76,7.57,9.76,12.31,20.23,12.31,5.66,0,10.19-1.34,13.65-4.1,3.47-2.76,5.16-6.51,5.16-11.39Z"/>
        <path class="cls-4" d="M824.37,32.7c-3.4-3.25-7.57-4.88-12.59-4.88h-19.24v49.52h12.66v-14.86h6.58c5.02,0,9.2-1.63,12.59-4.88,3.4-3.25,5.09-7.43,5.09-12.45s-1.7-9.2-5.09-12.45ZM811.78,50.46h-6.58v-10.54h6.58c2.83,0,5.02,2.12,5.02,5.24s-2.19,5.31-5.02,5.31Z"/>
        <path class="cls-4" d="M693.48,144.36c5.66,0,10.19-1.34,13.65-4.1,3.47-2.76,5.16-6.51,5.16-11.39s-1.7-8.56-5.16-10.82c-1.77-1.2-3.33-2.05-4.81-2.69-1.49-.64-3.4-1.27-5.8-1.98-6.72-1.98-8.49-3.18-8.49-5.38,0-1.91,1.56-3.25,4.6-3.25,3.61,0,6.16,1.84,7.71,5.52l10.61-6.23c-3.4-7.36-10.12-11.32-18.39-11.32-4.88,0-8.98,1.42-12.31,4.25-3.25,2.83-4.88,6.51-4.88,11.11,0,8.49,5.66,12.88,14.72,15.49,3.18.92,5.31,1.56,6.23,1.91,2.19.92,3.33,2.05,3.33,3.54,0,2.19-1.91,3.33-5.8,3.33-4.67,0-7.92-2.19-9.76-6.58l-10.82,6.3c2.76,7.57,9.76,12.31,20.23,12.31Z"/>
        <path class="cls-4" d="M737.63,143.3v-10.61c-5.31.28-7.36-.14-7.36-3.25v-10.26h7.36v-11.25h-7.36v-9.9l-11.74,3.54v6.37h-5.31v11.25h5.31v10.54c0,5.59,1.41,9.48,4.24,11.67,2.9,2.12,7.85,2.76,14.86,1.91Z"/>
        <path class="cls-4" d="M766,126.74c0,4.17-2.12,6.44-5.8,6.44-3.18,0-5.31-1.91-5.31-5.59v-19.67h-11.74v21.15c0,9.83,5.38,15.21,13.02,15.21,4.46,0,7.71-1.49,9.83-4.53v3.54h11.74v-35.37h-11.74v18.82Z"/>
        <path class="cls-4" d="M799.46,144.29c4.32,0,7.64-1.42,10.05-4.25v3.25h11.74v-49.52h-11.74v17.4c-2.41-2.83-5.73-4.24-10.05-4.24-4.74,0-8.7,1.77-11.89,5.38-3.18,3.54-4.74,7.99-4.74,13.3s1.56,9.76,4.74,13.37c3.18,3.54,7.15,5.31,11.89,5.31ZM796.71,120.02c1.34-1.42,3.18-2.12,5.38-2.12s4.03.71,5.38,2.12c1.34,1.42,2.05,3.25,2.05,5.59s-.71,4.17-2.05,5.59c-1.34,1.42-3.18,2.12-5.38,2.12s-4.03-.71-5.38-2.12c-1.34-1.41-2.05-3.25-2.05-5.59s.71-4.17,2.05-5.59Z"/>
        <path class="cls-4" d="M845.17,106.93c-5.45,0-9.98,1.77-13.51,5.38-3.54,3.61-5.31,8.07-5.31,13.37s1.77,9.83,5.38,13.37c3.61,3.47,8.42,5.24,14.43,5.24,6.65,0,11.74-2.19,15.21-6.58l-8.49-5.94c-1.77,1.63-3.89,2.48-6.44,2.48-4.1,0-6.72-1.42-7.92-4.32h24.41c.35-1.34.5-2.83.5-4.39,0-5.31-1.7-9.76-5.16-13.3-3.47-3.54-7.78-5.31-13.09-5.31ZM838.38,121.79c.99-3.33,3.33-4.95,6.93-4.95s5.73,1.63,6.65,4.95h-13.58Z"/>
        <path class="cls-4" d="M880.19,124.48c0-4.17,2.12-6.44,5.8-6.44,3.18,0,5.31,1.91,5.31,5.59v19.67h11.74v-21.15c0-9.83-5.38-15.21-13.02-15.21-4.46,0-7.71,1.49-9.83,4.53v-3.54h-11.74v35.37h11.74v-18.82Z"/>
        <path class="cls-4" d="M923.99,98.02l-11.74,3.54v6.37h-5.31v11.25h5.31v10.54c0,5.59,1.41,9.48,4.24,11.67,2.9,2.12,7.85,2.76,14.86,1.91v-10.61c-5.31.28-7.36-.14-7.36-3.25v-10.26h7.36v-11.25h-7.36v-9.9Z"/>
        <path class="cls-4" d="M687.96,159.73l-16.34,49.52h13.73l2.12-7.15h16.48l2.12,7.15h13.65l-16.34-49.52h-15.42ZM690.72,191.21l4.95-16.84,5.02,16.84h-9.98Z"/>
        <path class="cls-4" d="M763.45,172.89c-4.39,0-7.78,1.49-10.26,4.53-1.98-3.04-5.02-4.53-9.06-4.53s-7.36,1.41-9.55,4.32v-3.33h-11.74v35.37h11.74v-19.31c0-3.68,1.7-5.94,4.88-5.94,2.97,0,4.46,1.63,4.46,4.95v20.3h11.74v-19.31c0-3.68,1.7-5.94,4.88-5.94,2.9,0,4.39,1.63,4.39,4.95v20.3h11.82v-21.65c0-9.13-5.09-14.72-13.3-14.72Z"/>
        <path class="cls-4" d="M804.91,172.89c-4.32,0-7.64,1.41-10.05,4.24v-17.4h-11.74v49.52h11.74v-3.25c2.41,2.83,5.73,4.25,10.05,4.25,4.74,0,8.63-1.77,11.82-5.31,3.18-3.61,4.81-8.07,4.81-13.37s-1.63-9.76-4.81-13.3c-3.18-3.61-7.08-5.38-11.82-5.38ZM807.67,197.16c-1.34,1.42-3.18,2.12-5.38,2.12s-4.03-.71-5.38-2.12c-1.34-1.41-2.05-3.25-2.05-5.59s.71-4.17,2.05-5.59c1.34-1.42,3.18-2.12,5.38-2.12s4.03.71,5.38,2.12c1.34,1.42,2.05,3.25,2.05,5.59s-.71,4.17-2.05,5.59Z"/>
        <path class="cls-4" d="M851.61,177.13c-2.41-2.83-5.73-4.24-10.05-4.24-4.74,0-8.7,1.77-11.89,5.38-3.18,3.54-4.74,7.99-4.74,13.3s1.56,9.76,4.74,13.37c3.18,3.54,7.15,5.31,11.89,5.31,4.32,0,7.64-1.42,10.05-4.25v3.25h11.74v-35.37h-11.74v3.25ZM849.56,197.16c-1.34,1.42-3.18,2.12-5.38,2.12s-4.03-.71-5.38-2.12c-1.34-1.41-2.05-3.25-2.05-5.59s.71-4.17,2.05-5.59c1.34-1.42,3.18-2.12,5.38-2.12s4.03.71,5.38,2.12c1.34,1.42,2.05,3.25,2.05,5.59s-.71,4.17-2.05,5.59Z"/>
        <path class="cls-4" d="M887.34,187.04c-3.4-.78-6.16-1.49-6.16-2.83,0-1.13.85-1.7,2.62-1.7,1.91,0,3.32.99,4.39,3.04l9.9-4.46c-2.76-5.45-7.57-8.21-14.57-8.21-3.89,0-7.29,1.06-10.05,3.11-2.76,2.05-4.17,5.02-4.17,8.77-.07,7.29,6.3,9.9,11.18,10.97,3.4.85,6.08,1.56,6.08,2.9,0,1.27-1.06,1.91-3.18,1.91-2.76,0-4.6-1.27-5.52-3.89l-10.26,5.16c2.62,5.59,7.92,8.42,15.85,8.42,4.17,0,7.71-.99,10.75-2.9,3.04-1.91,4.53-4.95,4.53-8.98.07-7.85-6.37-10.4-11.39-11.32Z"/>
        <path class="cls-4" d="M918.83,187.04c-3.4-.78-6.16-1.49-6.16-2.83,0-1.13.85-1.7,2.62-1.7,1.91,0,3.32.99,4.39,3.04l9.9-4.46c-2.76-5.45-7.57-8.21-14.57-8.21-3.89,0-7.29,1.06-10.05,3.11-2.76,2.05-4.17,5.02-4.17,8.77-.07,7.29,6.3,9.9,11.18,10.97,3.4.85,6.08,1.56,6.08,2.9,0,1.27-1.06,1.91-3.18,1.91-2.76,0-4.6-1.27-5.52-3.89l-10.26,5.16c2.62,5.59,7.92,8.42,15.85,8.42,4.17,0,7.71-.99,10.75-2.9,3.04-1.91,4.53-4.95,4.53-8.98.07-7.85-6.37-10.4-11.39-11.32Z"/>
        <path class="cls-4" d="M959.65,177.13c-2.41-2.83-5.73-4.24-10.05-4.24-4.74,0-8.7,1.77-11.89,5.38-3.18,3.54-4.74,7.99-4.74,13.3s1.56,9.76,4.74,13.37c3.18,3.54,7.15,5.31,11.89,5.31,4.32,0,7.64-1.42,10.05-4.25v3.25h11.74v-35.37h-11.74v3.25ZM957.6,197.16c-1.34,1.42-3.18,2.12-5.38,2.12s-4.03-.71-5.38-2.12c-1.34-1.41-2.05-3.25-2.05-5.59s.71-4.17,2.05-5.59c1.34-1.42,3.18-2.12,5.38-2.12s4.03.71,5.38,2.12c1.34,1.42,2.05,3.25,2.05,5.59s-.71,4.17-2.05,5.59Z"/>
        <path class="cls-4" d="M1003.16,177.13c-2.41-2.83-5.73-4.24-10.05-4.24-4.74,0-8.7,1.77-11.89,5.38-3.18,3.54-4.74,7.99-4.74,13.3s1.56,9.76,4.74,13.37c3.18,3.54,7.15,5.31,11.89,5.31,4.32,0,7.64-1.42,10.05-4.25v3.25h11.74v-49.52h-11.74v17.4ZM1001.11,197.16c-1.34,1.42-3.18,2.12-5.38,2.12s-4.03-.71-5.38-2.12c-1.34-1.41-2.05-3.25-2.05-5.59s.71-4.17,2.05-5.59c1.34-1.42,3.18-2.12,5.38-2.12s4.03.71,5.38,2.12c1.34,1.42,2.05,3.25,2.05,5.59s-.71,4.17-2.05,5.59Z"/>
        <path class="cls-4" d="M1038.89,172.89c-5.24,0-9.69,1.84-13.37,5.45-3.68,3.61-5.52,7.99-5.52,13.23s1.84,9.69,5.52,13.3c3.68,3.61,8.14,5.38,13.37,5.38s9.76-1.77,13.37-5.38c3.68-3.61,5.52-8.07,5.52-13.3s-1.84-9.62-5.52-13.23c-3.61-3.61-8.07-5.45-13.37-5.45ZM1038.89,198.92c-4.03,0-7.07-3.04-7.07-7.36s3.04-7.36,7.07-7.36,7.15,3.04,7.15,7.36-2.97,7.36-7.15,7.36Z"/>
        <path class="cls-4" d="M1074.69,180.46v-6.58h-11.74v35.37h11.74v-14.64c0-3.18,1.06-5.52,3.25-6.93,2.19-1.41,4.67-1.91,7.36-1.49v-13.02c-4.88,0-9.27,2.69-10.61,7.29Z"/>
        <path class="cls-4" d="M1106.11,187.04c-3.4-.78-6.16-1.49-6.16-2.83,0-1.13.85-1.7,2.62-1.7,1.91,0,3.32.99,4.39,3.04l9.9-4.46c-2.76-5.45-7.57-8.21-14.57-8.21-3.89,0-7.29,1.06-10.05,3.11-2.76,2.05-4.17,5.02-4.17,8.77-.07,7.29,6.3,9.9,11.18,10.97,3.4.85,6.08,1.56,6.08,2.9,0,1.27-1.06,1.91-3.18,1.91-2.76,0-4.6-1.27-5.52-3.89l-10.26,5.16c2.62,5.59,7.92,8.42,15.85,8.42,4.17,0,7.71-.99,10.75-2.9,3.04-1.91,4.53-4.95,4.53-8.98.07-7.85-6.37-10.4-11.39-11.32Z"/>
      </g>
    </g>
  </g>
</svg>