<?xml version="1.0" encoding="UTF-8"?>
<svg id="Layer_2" data-name="Layer 2" xmlns="http://www.w3.org/2000/svg" viewBox="0 0 1551.21 739.38">
  <defs>
    <style>
      .cls-1 {
        letter-spacing: -.03em;
      }

      .cls-2 {
        letter-spacing: -.04em;
      }

      .cls-3 {
        letter-spacing: -.03em;
      }

      .cls-4 {
        letter-spacing: -.03em;
      }

      .cls-5 {
        letter-spacing: -.04em;
      }

      .cls-6 {
        font-family: SVN-GilroyXBold, SVN-Gilroy;
        font-size: 112.13px;
        font-weight: 700;
        stroke-width: 3.18px;
      }

      .cls-6, .cls-7, .cls-8, .cls-9, .cls-10 {
        stroke: #221f1f;
      }

      .cls-6, .cls-9 {
        stroke-miterlimit: 10;
      }

      .cls-6, .cls-9, .cls-10 {
        fill: none;
      }

      .cls-7 {
        stroke-width: 9.93px;
      }

      .cls-7, .cls-8, .cls-10 {
        stroke-linejoin: round;
      }

      .cls-7, .cls-11 {
        fill: #fff;
      }

      .cls-8 {
        fill: #4468b0;
      }

      .cls-8, .cls-10 {
        stroke-width: 21.61px;
      }

      .cls-12 {
        letter-spacing: -.03em;
      }

      .cls-11, .cls-13, .cls-14, .cls-15 {
        stroke-width: 0px;
      }

      .cls-13 {
        fill: #244ad0;
      }

      .cls-16 {
        letter-spacing: -.04em;
      }

      .cls-14 {
        fill: #de2935;
      }

      .cls-17 {
        letter-spacing: -.06em;
      }

      .cls-9 {
        stroke-width: 3.18px;
      }

      .cls-15 {
        fill: #ae1020;
      }
    </style>
  </defs>
  <g id="Layer_1-2" data-name="Layer 1">
    <g>
      <g>
        <g>
          <path class="cls-9" d="M297.39,64.53c-127.12,0-230.58,105.36-230.58,234.7s103.46,234.62,230.58,234.62,230.92-105.19,230.92-234.62-103.8-234.7-230.92-234.7ZM297.39,449.97c-83.41,0-151.04-67.6-151.04-150.99s67.62-150.99,151.04-150.99,151.04,67.6,151.04,150.99-67.62,150.99-151.04,150.99Z"/>
          <polygon class="cls-9" points="1100.56 260.89 1149.48 355.93 1250.59 355.93 1100.56 64.53 859.07 533.85 960.18 533.85 1100.56 260.89"/>
          <polygon class="cls-9" points="1241.03 533.85 1342.22 533.85 1293.22 438.81 1192.19 438.81 1241.03 533.85"/>
          <path class="cls-9" d="M706.11,451.22v87.24c80.89,0,146.67-63.75,146.67-141.59s-65.78-141.09-146.67-141.09c-37.93,0-69.9-25.08-69.9-54.27s32.05-54.36,69.9-54.36,69.81,24.91,69.81,54.36h76.86c0-77.84-65.7-141.17-146.67-141.17s-146.76,63.33-146.76,141.17,65.78,141.09,146.76,141.09c37.84,0,69.81,25.08,69.81,54.27s-31.97,54.36-69.81,54.36Z"/>
          <text class="cls-6" transform="translate(22.82 677.94)"><tspan class="cls-4" x="0" y="0">O</tspan><tspan class="cls-16" x="85.45" y="0">I</tspan><tspan class="cls-12" x="112.81" y="0">S</tspan><tspan class="cls-4" x="174.93" y="0">P </tspan><tspan class="cls-2" x="263.29" y="0">S</tspan><tspan class="cls-4" x="324.29" y="0">tudent Amb</tspan><tspan class="cls-1" x="917.58" y="0">a</tspan><tspan class="cls-17" x="983.97" y="0">s</tspan><tspan class="cls-16" x="1030.16" y="0">s</tspan><tspan class="cls-3" x="1078.6" y="0">ado</tspan><tspan class="cls-5" x="1275.73" y="0">r</tspan><tspan class="cls-3" x="1312.62" y="0">s</tspan></text>
        </g>
        <g>
          <path class="cls-10" d="M1370.32,574.35c5.68-3.9,10.58-8.98,14.28-15.05,8.99-14.75,9.64-33.12,1.71-48.47l-49.05-95.01c-8.5-16.47-25.49-26.81-44.03-26.81,0,0-2.24,0-6.02,0,2.1-2.31,4.01-4.84,5.67-7.56,8.99-14.75,9.64-33.11,1.73-48.46l-150.17-291.33c-8.5-16.48-25.49-26.84-44.04-26.84h-.03c-18.56.01-35.56,10.39-44.04,26.89l-159.51,310.36c-9.99-40.11-33.07-75.32-64.6-101.09h20.48c13.14-.02,25.74-5.24,35.03-14.53,9.29-9.29,14.5-21.89,14.49-35.03-.05-105.1-88.07-190.61-196.31-190.61-52.03.02-101.07,19.67-138.07,55.31-19.63,18.9-34.63,41.09-44.47,65.29C472.26,60.99,389.93,15.19,297.2,15.19c-74.88.04-145.29,29.78-198.27,83.77-52.73,53.73-81.75,124.97-81.72,200.6.05,110.64,62.8,206.69,154.06,253.55h-72.71c-48.47,0-87.76,39.28-87.76,87.74h0c0,48.46,39.29,87.74,87.76,87.74h1214.53c48.47,0,87.76-39.28,87.76-87.74h0c0-26.59-11.85-50.41-30.55-66.5ZM1100.56,368.99l4.85,9.41c8.5,16.49,25.49,26.85,44.04,26.85,0,0,2.27,0,6.11,0-2.1,2.31-4,4.82-5.66,7.54-8.99,14.74-9.66,33.09-1.76,48.44l47.27,91.88h-189.44l94.58-184.12ZM706.03,196.68c11.01,0,18.11,4.72,20.31,7.16.06,1.16.15,2.31.29,3.45-6.78-.69-13.66-1.04-20.63-1.04-7.91,0-13.82-2.45-17.36-4.75,3.54-2.33,9.46-4.82,17.39-4.82ZM297.34,197.71c55.94,0,101.47,45.49,101.49,101.41.03,55.95-45.48,101.48-101.49,101.51-55.94,0-101.46-45.49-101.49-101.41-.01-27.1,10.53-52.58,29.69-71.76,19.16-19.17,44.64-29.74,71.75-29.75M574.52,342.89c34.85,30.58,81.01,49.23,131.6,49.23,7.89,0,13.78,2.46,17.31,4.76-3.52,2.32-9.42,4.81-17.32,4.81-13.14,0-25.74,5.23-35.03,14.52-9.29,9.29-14.5,21.89-14.49,35.03l.04,87.24c0,5.09.78,10,2.21,14.62h-235.25c79.21-40.62,136.94-118.21,150.94-210.22Z"/>
          <path class="cls-11" d="M1370.32,574.35c5.68-3.9,10.58-8.98,14.28-15.05,8.99-14.75,9.64-33.12,1.71-48.47l-49.05-95.01c-8.5-16.47-25.49-26.81-44.03-26.81,0,0-2.24,0-6.02,0,2.1-2.31,4.01-4.84,5.67-7.56,8.99-14.75,9.64-33.11,1.73-48.46l-150.17-291.33c-8.5-16.48-25.49-26.84-44.04-26.84h-.03c-18.56.01-35.56,10.39-44.04,26.89l-159.51,310.36c-9.99-40.11-33.07-75.32-64.6-101.09h20.48c13.14-.02,25.74-5.24,35.03-14.53,9.29-9.29,14.5-21.89,14.49-35.03-.05-105.1-88.07-190.61-196.31-190.61-52.03.02-101.07,19.67-138.07,55.31-19.63,18.9-34.63,41.09-44.47,65.29C472.26,60.99,389.93,15.19,297.2,15.19c-74.88.04-145.29,29.78-198.27,83.77-52.73,53.73-81.75,124.97-81.72,200.6.05,110.64,62.8,206.69,154.06,253.55h-72.71c-48.47,0-87.76,39.28-87.76,87.74h0c0,48.46,39.29,87.74,87.76,87.74h1214.53c48.47,0,87.76-39.28,87.76-87.74h0c0-26.59-11.85-50.41-30.55-66.5ZM1100.56,368.99l4.85,9.41c8.5,16.49,25.49,26.85,44.04,26.85,0,0,2.27,0,6.11,0-2.1,2.31-4,4.82-5.66,7.54-8.99,14.74-9.66,33.09-1.76,48.44l47.27,91.88h-189.44l94.58-184.12ZM706.03,196.68c11.01,0,18.11,4.72,20.31,7.16.06,1.16.15,2.31.29,3.45-6.78-.69-13.66-1.04-20.63-1.04-7.91,0-13.82-2.45-17.36-4.75,3.54-2.33,9.46-4.82,17.39-4.82ZM297.34,197.71c55.94,0,101.47,45.49,101.49,101.41.03,55.95-45.48,101.48-101.49,101.51-55.94,0-101.46-45.49-101.49-101.41-.01-27.1,10.53-52.58,29.69-71.76,19.16-19.17,44.64-29.74,71.75-29.75M574.52,342.89c34.85,30.58,81.01,49.23,131.6,49.23,7.89,0,13.78,2.46,17.31,4.76-3.52,2.32-9.42,4.81-17.32,4.81-13.14,0-25.74,5.23-35.03,14.52-9.29,9.29-14.5,21.89-14.49,35.03l.04,87.24c0,5.09.78,10,2.21,14.62h-235.25c79.21-40.62,136.94-118.21,150.94-210.22Z"/>
        </g>
        <g>
          <path class="cls-8" d="M297.39,64.53c-127.12,0-230.58,105.36-230.58,234.7s103.46,234.62,230.58,234.62,230.92-105.19,230.92-234.62-103.8-234.7-230.92-234.7ZM297.39,449.97c-83.41,0-151.04-67.6-151.04-150.99s67.62-150.99,151.04-150.99,151.04,67.6,151.04,150.99-67.62,150.99-151.04,150.99Z"/>
          <polygon class="cls-8" points="1100.56 260.89 1149.48 355.93 1250.59 355.93 1100.56 64.53 859.07 533.85 960.18 533.85 1100.56 260.89"/>
          <polygon class="cls-8" points="1241.03 533.85 1342.22 533.85 1293.22 438.81 1192.19 438.81 1241.03 533.85"/>
          <path class="cls-8" d="M706.11,451.22v87.24c80.89,0,146.67-63.75,146.67-141.59s-65.78-141.09-146.67-141.09c-37.93,0-69.9-25.08-69.9-54.27s32.05-54.36,69.9-54.36,69.81,24.91,69.81,54.36h76.86c0-77.84-65.7-141.17-146.67-141.17s-146.76,63.33-146.76,141.17,65.78,141.09,146.76,141.09c37.84,0,69.81,25.08,69.81,54.27s-31.97,54.36-69.81,54.36Z"/>
          <g>
            <path class="cls-8" d="M99.26,679.43c-10.76,0-19.92-3.73-27.48-11.18-7.56-7.45-11.29-16.61-11.29-27.58s3.73-20.12,11.29-27.58c7.56-7.45,16.72-11.18,27.48-11.18s19.92,3.73,27.48,11.18c7.56,7.45,11.29,16.61,11.29,27.58s-3.73,20.12-11.29,27.58c-7.56,7.45-16.72,11.18-27.48,11.18ZM99.26,662.82c6.18,0,11.29-2.02,15.44-6.17,4.15-4.15,6.28-9.48,6.28-15.97s-2.13-11.82-6.28-15.97c-4.15-4.15-9.27-6.18-15.44-6.18s-11.4,2.02-15.55,6.18c-4.15,4.15-6.18,9.48-6.18,15.97s2.02,11.82,6.18,15.97c4.15,4.15,9.37,6.17,15.55,6.17Z"/>
            <path class="cls-8" d="M144.84,603.41h17.04v74.53h-17.04v-74.53Z"/>
            <path class="cls-8" d="M167.1,661.01l14.7-8.52c2.98,6.92,8.2,10.33,15.66,10.33,6.71,0,10.12-2.02,10.12-6.07,0-2.24-1.06-3.94-3.3-5.11-2.13-1.28-6.18-2.77-12.14-4.36-6.28-1.7-10.54-3.62-15.12-7.03-4.37-3.51-6.82-8.84-6.82-15.65s2.45-12.35,7.35-16.5c5.01-4.15,10.86-6.17,17.68-6.17,12.25,0,21.83,5.86,27.27,16.82l-14.38,8.41c-2.66-5.64-6.39-8.62-12.89-8.62-5.11,0-7.99,2.56-7.99,5.64,0,1.81.85,3.41,2.56,4.79,1.81,1.38,5.43,2.88,10.86,4.47l6.92,2.24c1.6.53,3.73,1.49,6.18,2.88,2.56,1.28,4.47,2.66,5.75,4.15,2.66,2.88,5.11,7.77,5.11,13.84,0,7.13-2.56,12.67-7.67,16.82-5.11,4.05-11.82,6.07-20.02,6.07-15.23,0-25.56-7.03-29.82-18.42Z"/>
            <path class="cls-8" d="M258.06,603.41c7.35,0,13.53,2.45,18.53,7.45,5.01,5.01,7.56,10.97,7.56,18.1s-2.56,13.1-7.56,18.1c-5.01,5.01-11.18,7.45-18.53,7.45h-11.18v23.42h-17.04v-74.53h28.22ZM258.06,638.54c5.22,0,9.05-4.15,9.05-9.58s-3.83-9.58-9.05-9.58h-11.18v19.17h11.18Z"/>
            <path class="cls-8" d="M310.04,661.01l14.7-8.52c2.98,6.92,8.2,10.33,15.66,10.33,6.71,0,10.12-2.02,10.12-6.07,0-2.24-1.06-3.94-3.3-5.11-2.13-1.28-6.18-2.77-12.14-4.36-6.28-1.7-10.54-3.62-15.12-7.03-4.37-3.51-6.82-8.84-6.82-15.65s2.45-12.35,7.35-16.5c5.01-4.15,10.86-6.17,17.68-6.17,12.25,0,21.83,5.86,27.27,16.82l-14.38,8.41c-2.66-5.64-6.39-8.62-12.89-8.62-5.11,0-7.99,2.56-7.99,5.64,0,1.81.85,3.41,2.56,4.79,1.81,1.38,5.43,2.88,10.86,4.47l6.92,2.24c1.6.53,3.73,1.49,6.18,2.88,2.56,1.28,4.47,2.66,5.75,4.15,2.66,2.88,5.11,7.77,5.11,13.84,0,7.13-2.56,12.67-7.67,16.82-5.11,4.05-11.82,6.07-20.02,6.07-15.23,0-25.56-7.03-29.82-18.42Z"/>
            <path class="cls-8" d="M402.38,640.03h-10.97v18.85c0,4.26,3.2,5,10.97,4.58v14.48c-10.12,1.06-17.15.11-21.09-2.87-3.94-3.09-5.86-8.41-5.86-16.18v-18.85h-8.52v-15.33h8.52v-10.12l15.98-4.79v14.91h10.97v15.33Z"/>
            <path class="cls-8" d="M444.13,624.7h15.98v53.24h-15.98v-5c-3.2,4.37-8.31,6.5-15.23,6.5-5.64,0-10.44-1.92-14.27-5.86-3.73-3.94-5.65-9.26-5.65-16.18v-32.69h15.98v30.34c0,6.28,3.83,9.69,9.27,9.69,6.07,0,9.91-3.73,9.91-10.97v-29.07Z"/>
            <path class="cls-8" d="M507.71,603.41h15.98v74.53h-15.98v-5c-3.73,4.37-9.05,6.5-15.87,6.5s-12.99-2.66-18-8.09c-5.01-5.43-7.46-12.14-7.46-20.02s2.45-14.48,7.46-19.91c5.01-5.43,10.97-8.2,18-8.2s12.14,2.13,15.87,6.5v-26.3ZM495.04,664.31c3.73,0,6.82-1.17,9.16-3.51,2.34-2.34,3.52-5.54,3.52-9.48s-1.17-7.13-3.52-9.48c-2.34-2.34-5.43-3.51-9.16-3.51s-6.82,1.17-9.16,3.51c-2.34,2.34-3.52,5.54-3.52,9.48s1.17,7.13,3.52,9.48c2.34,2.34,5.43,3.51,9.16,3.51Z"/>
            <path class="cls-8" d="M546.91,657.71c1.81,5,6.07,7.45,12.78,7.45,4.37,0,7.78-1.38,10.23-4.04l12.78,7.35c-5.22,7.35-12.99,10.97-23.22,10.97-8.95,0-16.08-2.66-21.51-7.99-5.32-5.32-7.99-12.03-7.99-20.12s2.66-14.69,7.88-20.02c5.32-5.43,12.14-8.09,20.45-8.09,7.77,0,14.17,2.66,19.28,8.09,5.22,5.32,7.78,12.03,7.78,20.02,0,2.24-.21,4.37-.64,6.39h-37.81ZM569.49,645.78c-1.6-5.64-5.33-8.41-11.29-8.41s-10.01,2.77-11.61,8.41h22.9Z"/>
            <path class="cls-8" d="M637.01,629.07c3.83,3.94,5.75,9.26,5.75,16.19v32.69h-15.98v-30.34c0-6.28-3.83-9.69-9.27-9.69-6.07,0-9.9,3.73-9.9,10.97v29.07h-15.98v-53.24h15.98v5c3.19-4.37,8.31-6.5,15.23-6.5,5.65,0,10.44,1.92,14.17,5.86Z"/>
            <path class="cls-8" d="M682.17,640.03h-10.97v18.85c0,4.26,3.2,5,10.97,4.58v14.48c-10.12,1.06-17.15.11-21.09-2.87-3.94-3.09-5.86-8.41-5.86-16.18v-18.85h-8.52v-15.33h8.52v-10.12l15.98-4.79v14.91h10.97v15.33Z"/>
            <path class="cls-8" d="M761.3,677.94l-3.73-11.71h-27.69l-3.73,11.71h-18.64l25.35-74.53h21.73l25.35,74.53h-18.64ZM735,650.25h17.47l-8.73-27.36-8.73,27.36Z"/>
            <path class="cls-8" d="M857.37,629.28c3.73,3.94,5.54,9.26,5.54,15.97v32.69h-15.98v-31.3c0-5.43-2.66-8.73-7.67-8.73s-8.31,3.73-8.31,10.01v30.03h-15.98v-31.3c0-5.43-2.66-8.73-7.67-8.73s-8.31,3.73-8.31,10.01v30.03h-15.98v-53.24h15.98v4.9c2.88-4.26,7.67-6.39,14.27-6.39,6.18,0,10.86,2.34,13.95,7.03,3.3-4.68,8.41-7.03,15.44-7.03,6.07,0,10.97,2.02,14.7,6.07Z"/>
            <path class="cls-8" d="M920.96,631.41c5.01,5.43,7.46,12.03,7.46,19.91s-2.45,14.59-7.46,20.02c-5.01,5.43-10.97,8.09-18,8.09s-12.14-2.13-15.87-6.5v5h-15.98v-74.53h15.98v26.3c3.73-4.37,9.05-6.5,15.87-6.5s12.99,2.77,18,8.2ZM899.76,664.31c3.73,0,6.71-1.17,9.05-3.51,2.45-2.34,3.62-5.54,3.62-9.48s-1.17-7.13-3.62-9.48c-2.34-2.34-5.32-3.51-9.05-3.51s-6.71,1.17-9.16,3.51c-2.34,2.34-3.51,5.54-3.51,9.48s1.17,7.13,3.51,9.48c2.45,2.34,5.43,3.51,9.16,3.51Z"/>
            <path class="cls-8" d="M973.36,624.7h15.98v53.24h-15.98v-5c-3.73,4.37-9.05,6.5-15.87,6.5s-12.99-2.66-18-8.09c-5.01-5.43-7.46-12.14-7.46-20.02s2.45-14.48,7.46-19.91c5.01-5.43,10.97-8.2,18-8.2s12.14,2.13,15.87,6.5v-5ZM960.68,664.31c3.73,0,6.82-1.17,9.16-3.51,2.34-2.34,3.52-5.54,3.52-9.48s-1.17-7.13-3.52-9.48c-2.34-2.34-5.43-3.51-9.16-3.51s-6.82,1.17-9.16,3.51c-2.34,2.34-3.52,5.54-3.52,9.48s1.17,7.13,3.52,9.48c2.34,2.34,5.43,3.51,9.16,3.51Z"/>
            <path class="cls-8" d="M1022.14,644.93c7.35,1.6,17.04,5.43,16.94,17.04,0,5.75-2.13,10.11-6.39,13.1-4.26,2.87-9.48,4.37-15.76,4.37-11.18,0-18.85-4.26-22.9-12.67l13.85-7.88c1.39,4.15,4.47,6.28,9.05,6.28,3.83,0,5.75-1.06,5.75-3.3s-4.15-3.41-9.27-4.68c-7.35-2.02-16.93-5.64-16.93-16.5,0-5.54,2.02-9.8,5.96-12.88,4.05-3.09,9.05-4.58,14.91-4.58,8.84,0,16.4,4.05,20.77,11.39l-13.63,7.35c-1.7-3.09-4.05-4.68-7.14-4.68s-4.47.96-4.47,2.98c0,2.13,4.15,3.3,9.27,4.68Z"/>
            <path class="cls-8" d="M1066.02,644.93c7.35,1.6,17.04,5.43,16.94,17.04,0,5.75-2.13,10.11-6.39,13.1-4.26,2.87-9.48,4.37-15.76,4.37-11.18,0-18.85-4.26-22.9-12.67l13.85-7.88c1.39,4.15,4.47,6.28,9.05,6.28,3.83,0,5.75-1.06,5.75-3.3s-4.15-3.41-9.27-4.68c-7.35-2.02-16.93-5.64-16.93-16.5,0-5.54,2.02-9.8,5.96-12.88,4.05-3.09,9.05-4.58,14.91-4.58,8.84,0,16.4,4.05,20.77,11.39l-13.63,7.35c-1.7-3.09-4.05-4.68-7.14-4.68s-4.47.96-4.47,2.98c0,2.13,4.15,3.3,9.27,4.68Z"/>
            <path class="cls-8" d="M1126.3,624.7h15.98v53.24h-15.98v-5c-3.73,4.37-9.05,6.5-15.87,6.5s-12.99-2.66-18-8.09c-5.01-5.43-7.46-12.14-7.46-20.02s2.45-14.48,7.46-19.91c5.01-5.43,10.97-8.2,18-8.2s12.14,2.13,15.87,6.5v-5ZM1113.63,664.31c3.73,0,6.82-1.17,9.16-3.51,2.34-2.34,3.52-5.54,3.52-9.48s-1.17-7.13-3.52-9.48c-2.34-2.34-5.43-3.51-9.16-3.51s-6.82,1.17-9.16,3.51c-2.34,2.34-3.52,5.54-3.52,9.48s1.17,7.13,3.52,9.48c2.34,2.34,5.43,3.51,9.16,3.51Z"/>
            <path class="cls-8" d="M1189.88,603.41h15.98v74.53h-15.98v-5c-3.73,4.37-9.05,6.5-15.87,6.5s-12.99-2.66-18-8.09c-5.01-5.43-7.46-12.14-7.46-20.02s2.45-14.48,7.46-19.91c5.01-5.43,10.97-8.2,18-8.2s12.14,2.13,15.87,6.5v-26.3ZM1177.21,664.31c3.73,0,6.82-1.17,9.16-3.51,2.34-2.34,3.52-5.54,3.52-9.48s-1.17-7.13-3.52-9.48c-2.34-2.34-5.43-3.51-9.16-3.51s-6.82,1.17-9.16,3.51c-2.34,2.34-3.52,5.54-3.52,9.48s1.17,7.13,3.52,9.48c2.34,2.34,5.43,3.51,9.16,3.51Z"/>
            <path class="cls-8" d="M1240.37,679.43c-7.88,0-14.59-2.66-20.02-8.09-5.43-5.43-8.2-12.14-8.2-20.02s2.77-14.48,8.2-19.91c5.43-5.43,12.14-8.2,20.02-8.2s14.59,2.77,20.02,8.2c5.43,5.43,8.2,12.03,8.2,19.91s-2.77,14.59-8.2,20.02c-5.43,5.43-12.14,8.09-20.02,8.09ZM1240.37,663.88c3.51,0,6.39-1.17,8.73-3.51,2.34-2.34,3.51-5.32,3.51-9.05s-1.17-6.71-3.51-9.05c-2.34-2.34-5.22-3.51-8.73-3.51s-6.39,1.17-8.73,3.51c-2.34,2.34-3.52,5.32-3.52,9.05s1.17,6.71,3.52,9.05c2.34,2.34,5.22,3.51,8.73,3.51Z"/>
            <path class="cls-8" d="M1290.85,634.18c2.02-6.81,8.73-10.54,15.98-10.54v18.1c-3.94-.64-7.56,0-10.97,2.02-3.3,1.92-5.01,5.32-5.01,10.11v24.06h-15.98v-53.24h15.98v9.48Z"/>
            <path class="cls-8" d="M1334.3,644.93c7.35,1.6,17.04,5.43,16.94,17.04,0,5.75-2.13,10.11-6.39,13.1-4.26,2.87-9.48,4.37-15.76,4.37-11.18,0-18.85-4.26-22.9-12.67l13.85-7.88c1.39,4.15,4.47,6.28,9.05,6.28,3.83,0,5.75-1.06,5.75-3.3s-4.15-3.41-9.27-4.68c-7.35-2.02-16.93-5.64-16.93-16.5,0-5.54,2.02-9.8,5.96-12.88,4.05-3.09,9.05-4.58,14.91-4.58,8.84,0,16.4,4.05,20.77,11.39l-13.63,7.35c-1.7-3.09-4.05-4.68-7.14-4.68s-4.47.96-4.47,2.98c0,2.13,4.15,3.3,9.27,4.68Z"/>
          </g>
        </g>
        <g>
          <path class="cls-13" d="M297.39,64.53c-127.12,0-230.58,105.36-230.58,234.7s103.46,234.62,230.58,234.62,230.92-105.19,230.92-234.62-103.8-234.7-230.92-234.7ZM297.39,449.97c-83.41,0-151.04-67.6-151.04-150.99s67.62-150.99,151.04-150.99,151.04,67.6,151.04,150.99-67.62,150.99-151.04,150.99Z"/>
          <polygon class="cls-13" points="1100.56 260.89 1149.48 355.93 1250.59 355.93 1100.56 64.53 859.07 533.85 960.18 533.85 1100.56 260.89"/>
          <polygon class="cls-13" points="1241.03 533.85 1342.22 533.85 1293.22 438.81 1192.19 438.81 1241.03 533.85"/>
          <path class="cls-13" d="M706.11,451.22v87.24c80.89,0,146.67-63.75,146.67-141.59s-65.78-141.09-146.67-141.09c-37.93,0-69.9-25.08-69.9-54.27s32.05-54.36,69.9-54.36,69.81,24.91,69.81,54.36h76.86c0-77.84-65.7-141.17-146.67-141.17s-146.76,63.33-146.76,141.17,65.78,141.09,146.76,141.09c37.84,0,69.81,25.08,69.81,54.27s-31.97,54.36-69.81,54.36Z"/>
          <g>
            <path class="cls-11" d="M99.28,679.43c-10.76,0-19.93-3.73-27.5-11.18-7.56-7.46-11.3-16.61-11.3-27.58s3.73-20.12,11.3-27.58c7.57-7.45,16.73-11.18,27.5-11.18s19.93,3.73,27.5,11.18c7.56,7.46,11.3,16.61,11.3,27.58s-3.73,20.12-11.3,27.58c-7.56,7.45-16.73,11.18-27.5,11.18ZM99.28,662.81c6.18,0,11.3-2.02,15.45-6.17,4.16-4.16,6.29-9.48,6.29-15.97s-2.13-11.82-6.29-15.97c-4.15-4.15-9.27-6.18-15.45-6.18s-11.4,2.03-15.56,6.18c-4.16,4.15-6.18,9.48-6.18,15.97s2.02,11.82,6.18,15.97c4.15,4.15,9.38,6.17,15.56,6.17Z"/>
            <path class="cls-11" d="M144.85,603.4h17.05v74.54h-17.05v-74.54Z"/>
            <path class="cls-11" d="M167.11,661.01l14.71-8.52c2.98,6.92,8.2,10.33,15.66,10.33,6.71,0,10.12-2.02,10.12-6.07,0-2.24-1.07-3.94-3.3-5.11-2.13-1.28-6.18-2.77-12.15-4.37-6.29-1.7-10.55-3.62-15.13-7.03-4.37-3.51-6.82-8.84-6.82-15.65s2.45-12.35,7.35-16.51c5.01-4.15,10.87-6.17,17.69-6.17,12.25,0,21.85,5.86,27.28,16.82l-14.39,8.41c-2.67-5.64-6.4-8.63-12.9-8.63-5.12,0-7.99,2.56-7.99,5.64,0,1.81.85,3.41,2.56,4.79,1.81,1.39,5.43,2.88,10.87,4.47l6.93,2.24c1.6.53,3.73,1.49,6.18,2.88,2.55,1.28,4.48,2.66,5.75,4.15,2.66,2.88,5.11,7.77,5.11,13.84,0,7.14-2.56,12.67-7.67,16.82-5.12,4.04-11.83,6.07-20.04,6.07-15.24,0-25.57-7.03-29.84-18.42Z"/>
            <path class="cls-11" d="M258.08,603.4c7.35,0,13.53,2.45,18.54,7.45,5.01,5.01,7.57,10.97,7.57,18.1s-2.56,13.1-7.57,18.1c-5.01,5.01-11.19,7.46-18.54,7.46h-11.19v23.43h-17.05v-74.54h28.24ZM258.08,638.54c5.22,0,9.06-4.16,9.06-9.59s-3.84-9.58-9.06-9.58h-11.19v19.17h11.19Z"/>
            <path class="cls-11" d="M310.04,661.01l14.71-8.52c2.98,6.92,8.21,10.33,15.66,10.33,6.71,0,10.12-2.02,10.12-6.07,0-2.24-1.07-3.94-3.3-5.11-2.13-1.28-6.18-2.77-12.15-4.37-6.29-1.7-10.55-3.62-15.13-7.03-4.37-3.51-6.82-8.84-6.82-15.65s2.45-12.35,7.35-16.51c5.01-4.15,10.87-6.17,17.69-6.17,12.25,0,21.85,5.86,27.28,16.82l-14.39,8.41c-2.67-5.64-6.4-8.63-12.9-8.63-5.12,0-7.99,2.56-7.99,5.64,0,1.81.85,3.41,2.56,4.79,1.81,1.39,5.43,2.88,10.87,4.47l6.93,2.24c1.6.53,3.73,1.49,6.18,2.88,2.55,1.28,4.48,2.66,5.75,4.15,2.66,2.88,5.11,7.77,5.11,13.84,0,7.14-2.56,12.67-7.67,16.82-5.12,4.04-11.83,6.07-20.04,6.07-15.24,0-25.57-7.03-29.84-18.42Z"/>
            <path class="cls-11" d="M402.4,640.03h-10.98v18.85c0,4.26,3.2,5,10.98,4.58v14.48c-10.12,1.06-17.16.11-21.1-2.87-3.95-3.09-5.86-8.41-5.86-16.19v-18.85h-8.52v-15.33h8.52v-10.12l15.99-4.79v14.91h10.98v15.33Z"/>
            <path class="cls-11" d="M444.16,624.69h15.99v53.24h-15.99v-5.01c-3.2,4.37-8.31,6.5-15.24,6.5-5.65,0-10.44-1.92-14.28-5.86-3.73-3.94-5.65-9.26-5.65-16.19v-32.69h15.99v30.35c0,6.28,3.84,9.69,9.27,9.69,6.08,0,9.91-3.73,9.91-10.97v-29.07Z"/>
            <path class="cls-11" d="M507.74,603.4h15.99v74.54h-15.99v-5.01c-3.73,4.37-9.06,6.5-15.88,6.5s-13-2.66-18.01-8.09c-5.01-5.43-7.46-12.14-7.46-20.02s2.45-14.48,7.46-19.91c5.01-5.43,10.98-8.2,18.01-8.2s12.15,2.13,15.88,6.49v-26.3ZM495.06,664.31c3.73,0,6.82-1.17,9.17-3.51,2.34-2.34,3.52-5.54,3.52-9.48s-1.17-7.13-3.52-9.47c-2.34-2.34-5.43-3.51-9.17-3.51s-6.82,1.17-9.17,3.51c-2.34,2.34-3.52,5.54-3.52,9.47s1.17,7.14,3.52,9.48,5.43,3.51,9.17,3.51Z"/>
            <path class="cls-11" d="M546.92,657.71c1.81,5,6.08,7.45,12.79,7.45,4.37,0,7.78-1.39,10.23-4.04l12.79,7.35c-5.22,7.35-13,10.97-23.23,10.97-8.95,0-16.09-2.66-21.53-7.99-5.33-5.33-7.99-12.04-7.99-20.13s2.67-14.69,7.89-20.02c5.33-5.43,12.15-8.09,20.46-8.09,7.78,0,14.18,2.66,19.29,8.09,5.22,5.32,7.78,12.03,7.78,20.02,0,2.24-.21,4.37-.64,6.39h-37.83ZM569.51,645.78c-1.6-5.64-5.33-8.41-11.3-8.41s-10.02,2.77-11.61,8.41h22.91Z"/>
            <path class="cls-11" d="M637.04,629.06c3.84,3.94,5.75,9.26,5.75,16.19v32.69h-15.99v-30.35c0-6.28-3.84-9.69-9.27-9.69-6.08,0-9.91,3.73-9.91,10.97v29.07h-15.99v-53.24h15.99v5c3.2-4.37,8.31-6.49,15.24-6.49,5.65,0,10.44,1.92,14.18,5.86Z"/>
            <path class="cls-11" d="M682.19,640.03h-10.98v18.85c0,4.26,3.2,5,10.98,4.58v14.48c-10.12,1.06-17.16.11-21.1-2.87-3.95-3.09-5.86-8.41-5.86-16.19v-18.85h-8.52v-15.33h8.52v-10.12l15.99-4.79v14.91h10.98v15.33Z"/>
            <path class="cls-11" d="M761.35,677.94l-3.73-11.71h-27.71l-3.73,11.71h-18.65l25.36-74.54h21.74l25.36,74.54h-18.65ZM735.02,650.25h17.47l-8.74-27.37-8.74,27.37Z"/>
            <path class="cls-11" d="M857.42,629.27c3.73,3.94,5.55,9.26,5.55,15.97v32.69h-15.99v-31.31c0-5.43-2.67-8.73-7.68-8.73s-8.31,3.73-8.31,10.01v30.03h-15.99v-31.31c0-5.43-2.67-8.73-7.68-8.73s-8.31,3.73-8.31,10.01v30.03h-15.99v-53.24h15.99v4.9c2.88-4.26,7.67-6.39,14.27-6.39,6.19,0,10.88,2.34,13.97,7.03,3.3-4.69,8.42-7.03,15.45-7.03,6.08,0,10.98,2.02,14.71,6.07Z"/>
            <path class="cls-11" d="M921,631.4c5.01,5.43,7.45,12.03,7.45,19.91s-2.45,14.59-7.45,20.02c-5.01,5.43-10.98,8.09-18.01,8.09s-12.15-2.13-15.87-6.5v5.01h-15.99v-74.54h15.99v26.3c3.72-4.37,9.05-6.49,15.87-6.49s13,2.77,18.01,8.2ZM899.79,664.31c3.72,0,6.71-1.17,9.05-3.51,2.45-2.34,3.62-5.54,3.62-9.48s-1.17-7.13-3.62-9.47c-2.34-2.34-5.33-3.51-9.05-3.51s-6.72,1.17-9.17,3.51c-2.34,2.34-3.52,5.54-3.52,9.47s1.17,7.14,3.52,9.48c2.45,2.34,5.43,3.51,9.17,3.51Z"/>
            <path class="cls-11" d="M973.39,624.69h15.99v53.24h-15.99v-5.01c-3.73,4.37-9.05,6.5-15.87,6.5s-13.01-2.66-18.01-8.09c-5.01-5.43-7.46-12.14-7.46-20.02s2.46-14.48,7.46-19.91c5.01-5.43,10.98-8.2,18.01-8.2s12.14,2.13,15.87,6.49v-5ZM960.71,664.31c3.73,0,6.82-1.17,9.17-3.51,2.34-2.34,3.52-5.54,3.52-9.48s-1.17-7.13-3.52-9.47-5.43-3.51-9.17-3.51-6.82,1.17-9.17,3.51-3.52,5.54-3.52,9.47,1.17,7.14,3.52,9.48c2.34,2.34,5.43,3.51,9.17,3.51Z"/>
            <path class="cls-11" d="M1022.16,644.93c7.35,1.6,17.05,5.43,16.94,17.04,0,5.75-2.13,10.12-6.39,13.1-4.26,2.87-9.49,4.37-15.77,4.37-11.19,0-18.86-4.26-22.92-12.67l13.85-7.88c1.39,4.15,4.48,6.28,9.06,6.28,3.83,0,5.75-1.06,5.75-3.3s-4.15-3.41-9.27-4.69c-7.35-2.02-16.94-5.64-16.94-16.5,0-5.54,2.02-9.8,5.96-12.89,4.05-3.09,9.06-4.58,14.92-4.58,8.84,0,16.4,4.05,20.78,11.39l-13.64,7.35c-1.7-3.09-4.05-4.69-7.14-4.69s-4.48.96-4.48,2.98c0,2.13,4.15,3.3,9.27,4.69Z"/>
            <path class="cls-11" d="M1066.04,644.93c7.35,1.6,17.05,5.43,16.94,17.04,0,5.75-2.13,10.12-6.39,13.1-4.26,2.87-9.49,4.37-15.77,4.37-11.19,0-18.86-4.26-22.92-12.67l13.85-7.88c1.39,4.15,4.48,6.28,9.06,6.28,3.83,0,5.75-1.06,5.75-3.3s-4.15-3.41-9.27-4.69c-7.35-2.02-16.94-5.64-16.94-16.5,0-5.54,2.02-9.8,5.96-12.89,4.05-3.09,9.06-4.58,14.92-4.58,8.84,0,16.4,4.05,20.78,11.39l-13.64,7.35c-1.7-3.09-4.05-4.69-7.14-4.69s-4.48.96-4.48,2.98c0,2.13,4.15,3.3,9.27,4.69Z"/>
            <path class="cls-11" d="M1126.33,624.69h15.99v53.24h-15.99v-5.01c-3.73,4.37-9.06,6.5-15.88,6.5s-13-2.66-18.01-8.09c-5.01-5.43-7.46-12.14-7.46-20.02s2.45-14.48,7.46-19.91c5.01-5.43,10.97-8.2,18.01-8.2s12.15,2.13,15.88,6.49v-5ZM1113.65,664.31c3.73,0,6.82-1.17,9.17-3.51,2.34-2.34,3.52-5.54,3.52-9.48s-1.17-7.13-3.52-9.47c-2.34-2.34-5.43-3.51-9.17-3.51s-6.82,1.17-9.17,3.51-3.52,5.54-3.52,9.47,1.17,7.14,3.52,9.48c2.34,2.34,5.43,3.51,9.17,3.51Z"/>
            <path class="cls-11" d="M1189.91,603.4h15.99v74.54h-15.99v-5.01c-3.73,4.37-9.06,6.5-15.88,6.5s-13-2.66-18.01-8.09c-5.01-5.43-7.46-12.14-7.46-20.02s2.45-14.48,7.46-19.91c5.01-5.43,10.97-8.2,18.01-8.2s12.15,2.13,15.88,6.49v-26.3ZM1177.23,664.31c3.73,0,6.82-1.17,9.17-3.51s3.52-5.54,3.52-9.48-1.17-7.13-3.52-9.47c-2.34-2.34-5.43-3.51-9.17-3.51s-6.82,1.17-9.17,3.51c-2.34,2.34-3.52,5.54-3.52,9.47s1.17,7.14,3.52,9.48,5.43,3.51,9.17,3.51Z"/>
            <path class="cls-11" d="M1240.39,679.43c-7.89,0-14.6-2.66-20.03-8.09-5.43-5.43-8.21-12.14-8.21-20.02s2.77-14.48,8.21-19.91c5.43-5.43,12.14-8.2,20.03-8.2s14.6,2.77,20.03,8.2c5.43,5.43,8.21,12.03,8.21,19.91s-2.77,14.59-8.21,20.02-12.15,8.09-20.03,8.09ZM1240.39,663.88c3.52,0,6.39-1.17,8.74-3.51,2.34-2.34,3.52-5.32,3.52-9.05s-1.17-6.71-3.52-9.05c-2.34-2.34-5.22-3.51-8.74-3.51s-6.39,1.17-8.74,3.51-3.52,5.33-3.52,9.05,1.17,6.71,3.52,9.05c2.34,2.34,5.22,3.51,8.74,3.51Z"/>
            <path class="cls-11" d="M1290.87,634.17c2.02-6.82,8.74-10.54,15.99-10.54v18.1c-3.95-.64-7.57,0-10.98,2.02-3.3,1.92-5.01,5.32-5.01,10.12v24.07h-15.99v-53.24h15.99v9.48Z"/>
            <path class="cls-11" d="M1334.32,644.93c7.36,1.6,17.06,5.43,16.94,17.04,0,5.75-2.13,10.12-6.39,13.1-4.26,2.87-9.48,4.37-15.77,4.37-11.18,0-18.86-4.26-22.91-12.67l13.85-7.88c1.39,4.15,4.48,6.28,9.05,6.28,3.84,0,5.76-1.06,5.76-3.3s-4.16-3.41-9.28-4.69c-7.35-2.02-16.94-5.64-16.94-16.5,0-5.54,2.03-9.8,5.97-12.89,4.05-3.09,9.05-4.58,14.92-4.58,8.85,0,16.41,4.05,20.78,11.39l-13.64,7.35c-1.7-3.09-4.05-4.69-7.14-4.69s-4.48.96-4.48,2.98c0,2.13,4.16,3.3,9.27,4.69Z"/>
          </g>
        </g>
      </g>
      <path class="cls-7" d="M1444.81,253.35c-9.61,0-18.81-3.18-26.26-8.84-7.46,5.67-16.66,8.84-26.26,8.84h-58.02c-16.21,0-31.06-9.02-38.53-23.4-7.47-14.38-6.31-31.71,3.02-44.97l37.85-53.81-36.56-52.03c-9.31-13.25-10.47-30.59-3-44.96,7.47-14.37,22.32-23.39,38.52-23.39h58.01c9.05,0,17.74,2.82,24.96,7.89,7.21-5.06,15.9-7.89,24.96-7.89h58.02c16.18,0,31.02,9,38.5,23.35,7.48,14.35,6.35,31.66-2.92,44.92l-36.44,52.1,37.73,53.89c9.28,13.26,10.42,30.58,2.94,44.93-7.48,14.35-22.32,23.36-38.51,23.36h-58.02Z"/>
      <g>
        <path class="cls-14" d="M1447.71,214.92c-1.62,0-3.14-.79-4.07-2.12l-22.09-31.59-22.32,31.61c-.93,1.32-2.44,2.1-4.05,2.1h-58.02c-1.85,0-3.55-1.03-4.41-2.68s-.72-3.63.35-5.14l53.4-75.91-52.09-74.13c-1.06-1.52-1.2-3.5-.34-5.14.85-1.64,2.55-2.68,4.4-2.68h58.02c1.61,0,3.13.78,4.06,2.1l21.01,29.81,20.78-29.79c.93-1.33,2.45-2.12,4.07-2.12h58.02c1.85,0,3.55,1.03,4.4,2.67.85,1.64.73,3.62-.33,5.14l-51.84,74.14,53.15,75.92c1.06,1.52,1.19,3.5.34,5.14s-2.55,2.67-4.4,2.67h-58.02Z"/>
        <path class="cls-15" d="M1504.42,54.2l-53.84,76.99,55.14,78.76h-58.02l-26.13-37.38-26.39,37.38h-58.02l55.4-78.76-54.1-76.99h58.01l25.09,35.6,24.83-35.6h58.02M1504.42,44.28h-58.02c-3.25,0-6.29,1.59-8.14,4.25l-16.73,23.99-16.93-24.03c-1.86-2.64-4.89-4.21-8.11-4.21h-58.01c-3.7,0-7.1,2.06-8.81,5.35s-1.44,7.25.69,10.28l50.08,71.27-51.39,73.06c-2.13,3.03-2.4,7-.69,10.29s5.1,5.35,8.81,5.35h58.02c3.22,0,6.25-1.57,8.11-4.2l18.24-25.84,18.04,25.8c1.86,2.66,4.89,4.24,8.14,4.24h58.02c3.7,0,7.1-2.06,8.81-5.34,1.71-3.28,1.45-7.24-.67-10.28l-51.16-73.07,49.86-71.29c2.12-3.03,2.38-6.99.67-10.28-1.71-3.28-5.1-5.34-8.8-5.34h0Z"/>
      </g>
    </g>
  </g>
</svg>